<svg xmlns="http://www.w3.org/2000/svg" fill="none" width="288" height="48" viewBox="0 0 288 48">
  <rect width="287" height="47" x=".5" y=".5" fill="#1A1B1E" rx="3.5"/>
  <rect width="287" height="47" x=".5" y=".5" fill="url(#a)" fill-opacity=".5" rx="3.5"/>
  <path fill="#fff" d="M28.2 29V18h3c2.6 0 3.9 1 3.9 2.9 0 .9-.3 1.7-1.4 2.2v.4c1.3.4 1.7 1.3 1.7 2.5 0 2-1.3 3-3.8 3h-3.4Zm1.3-1.2h2.2c1.6 0 2.3-.6 2.3-2 0-1.3-.7-1.8-2.3-1.8h-2.2v3.8Zm0-5h1.9c1.6 0 2.3-.5 2.3-1.8s-.7-1.8-2.3-1.8h-2v3.6Zm11.7 6.5c-2.4 0-3.6-1.5-3.6-4.4v-7H39v6.8c0 2.3.6 3.3 2.2 3.3s2.3-1 2.3-3.3V18h1.3v6.9c0 3-1.2 4.4-3.6 4.4Zm6-.3v-1.2h3v-8.6h-3V18h7.2v1.2h-2.9v8.6h3V29h-7.3Zm10.3 0V18H59v9.8h5V29h-6.6Zm11.8 0v-9.8h-3.2V18h7.8v1.2h-3.2V29h-1.4Zm16.3 0-1-11h1.2l1 9.8h.3l1-6.5h2.2l1 6.5h.4l.9-9.8h1.3l-1.1 11h-2.4l-1-6.5H89L88 29h-2.4Zm9.6 0v-1.2h3v-8.6h-3V18h7.2v1.2h-3v8.6h3V29h-7.2Zm12.5 0v-9.8h-3.2V18h7.8v1.2h-3.2V29h-1.4Zm12.5 0v-5h-4.5v5h-1.3V18h1.3v4.7h4.5V18h1.4v11h-1.4Zm26.9 6.3c-1.4-1.4-1.9-4.1-1.3-6.2 1 1.3 2.5 1.7 4 2 2.4.3 4.6.2 6.8-.9l.7-.4c.2.5.3 1.1.2 1.7a4.9 4.9 0 0 1-2 3.5l-1.5 1c-1.5 1-1.9 2.1-1.3 3.8v.2a4 4 0 0 1-1.7-1.5 4 4 0 0 1-.6-2.2V35c-.2-1-.7-1.4-1.5-1.4-.9 0-1.6.5-1.7 1.4v.2Zm-8.3-6.5s4.3-2 8.6-2l3.3-10c.1-.6.5-.9.9-.9s.7.3.8.8l3.3 10c5 0 8.6 2.1 8.6 2.1L157 9c-.2-.6-.6-1-1-1h-8.8c-.5 0-.8.4-1 1l-7.4 19.8ZM184 26c0 1.7-2.1 2.7-5.1 2.7-2 0-2.7-.5-2.7-1.5s.9-1.6 2.8-1.6c1.8 0 3.3 0 5 .3Zm.1-2.2a19 19 0 0 0-4.7-.4c-5.6 0-8.3 1.3-8.3 4.4 0 3.3 1.8 4.5 6 4.5 3.6 0 6-.9 7-3.1h.1v1.5c0 1.1.1 1.2 1 1.2h4.5c-.2-.7-.4-2.6-.4-4.2l.1-5c0-3.6-2.2-6-9.1-6-3 0-6.3.5-8.9 1.3.3 1 .6 3 .8 4.3 2.2-1 5.3-1.4 7.7-1.4 3.3 0 4.2.7 4.2 2.2v.7Zm12.2 3.2h-4.6v.5c0 3 2 4.9 9 4.9 6.6 0 8.8-1.8 8.8-4.9 0-3-1.4-4.4-7.7-4.7-4.9-.2-5.3-.7-5.3-1.3 0-.7.6-1.1 3.9-1.1 3.4 0 4.3.5 4.3 1.4v.3a49.2 49.2 0 0 1 4.5 0v-.6c0-3.6-3-4.8-8.7-4.8-6.5 0-8.7 1.6-8.7 4.7 0 2.8 1.7 4.5 8 4.8 4.6.1 5 .7 5 1.4s-.7 1-4 1c-3.6 0-4.5-.5-4.5-1.5V27Zm21.1-12.9a18.4 18.4 0 0 1-6.6 3.7v3.5h1.6v5.2c0 3.3 1.7 5.7 7 5.7 2.2 0 3.7-.3 5.5-.6-.1-1.2-.4-3-.4-4.5a12 12 0 0 1-4 .6c-2.2 0-3-.6-3-2.3v-4h7l.1-4.2h-7v-3.1h-.2Zm14.4 6.4v-3.3H227v14.7h5.6l-.2-6c0-3.3 1.4-4.3 4.4-4.3 1.5 0 2.5.2 3.4.5 0-1.2.2-3.6.4-4.7-1-.3-2-.4-3.2-.4-2.6 0-4.5 1-5.4 3.6h-.2Zm24.1 3.9c0 2.7-2 4-5 4s-5-1.2-5-4c0-2.7 2-3.7 5-3.7s5 1 5 3.7Zm5 0c0-5.4-4.1-7.7-10-7.7s-9.8 2.3-9.8 7.6 3.7 8.1 9.8 8.1c6.1 0 10-2.8 10-8Z"/>
  <rect width="287" height="47" x=".5" y=".5" stroke="url(#b)" rx="3.5"/>
  <defs>
    <linearGradient id="a" x1="0" x2="213.4" y1="48" y2="-104.5" gradientUnits="userSpaceOnUse">
      <stop stop-color="#3245FF"/>
      <stop offset="1" stop-color="#BC52EE"/>
    </linearGradient>
    <linearGradient id="b" x1="0" x2="213.4" y1="48" y2="-104.5" gradientUnits="userSpaceOnUse">
      <stop stop-color="#3245FF"/>
      <stop offset="1" stop-color="#BC52EE"/>
    </linearGradient>
  </defs>
</svg>
