<svg xmlns="http://www.w3.org/2000/svg" fill="none" width="240" height="40" viewBox="0 0 240 40">
  <rect width="239" height="39" x=".5" y=".5" fill="#1A1B1E" rx="3.5"/>
  <rect width="239" height="39" x=".5" y=".5" fill="url(#a)" fill-opacity=".5" rx="3.5"/>
  <path fill="#fff" d="M26.3 25v-9.7H29c2.2 0 3.3.9 3.3 2.6 0 .8-.2 1.5-1.2 2v.3c1.2.3 1.5 1.2 1.5 2.1 0 1.8-1 2.7-3.3 2.7h-3Zm1.2-1h1.9c1.4 0 2-.6 2-1.7 0-1.2-.6-1.7-2-1.7h-2v3.3Zm0-4.4H29c1.4 0 2-.5 2-1.6s-.6-1.6-2-1.6h-1.6v3.2Zm10.2 5.6c-2 0-3.1-1.2-3.1-3.8v-6h1.1v5.8c0 2 .6 2.9 2 2.9s2-.9 2-2.9v-5.9h1.2v6.1c0 2.6-1 3.8-3.2 3.8ZM43 25v-1h2.5v-7.6H43v-1h6.3v1h-2.6v7.5h2.6V25H43Zm9 0v-9.7h1.2V24h4.5v1H52Zm10.3 0v-8.6h-2.8v-1h6.8v1h-2.8V25h-1.2Zm14.3 0-1-9.7h1.2l.7 8.6h.4l.8-5.6h2l.8 5.6h.4l.8-8.6h1l-.9 9.7h-2.1l-.8-5.7h-.4l-.8 5.7h-2.1Zm8.3 0v-1h2.6v-7.6h-2.6v-1h6.3v1h-2.5v7.5h2.5V25H85Zm11 0v-8.6h-2.8v-1h6.8v1h-2.8V25h-1.2Zm11 0v-4.4h-4V25h-1.2v-9.7h1.2v4.2h4v-4.2h1.1V25h-1Zm22.4 3.4c-1-1-1.4-3-1-4.5.9 1 2 1.2 3 1.4 1.8.2 3.5.1 5.1-.6l.6-.4c.2.5.2.9.1 1.4 0 1-.6 1.9-1.5 2.5l-1 .8c-1.2.7-1.5 1.6-1 2.9v.1a3 3 0 0 1-1.3-1.1 3 3 0 0 1-.5-1.7v-.9c-.2-.7-.5-1-1.1-1-.7 0-1.2.4-1.3 1v.1Zm-6.2-4.8s3.2-1.6 6.5-1.6l2.4-7.5c.1-.3.4-.6.7-.6.3 0 .5.3.6.6l2.5 7.5c3.8 0 6.4 1.6 6.4 1.6l-5.5-14.9c-.1-.4-.4-.7-.8-.7h-6.5c-.4 0-.6.3-.8.7l-5.5 15Zm33.9-2.2c0 1.4-1.6 2.1-3.9 2.1-1.4 0-2-.3-2-1 0-.9.7-1.3 2.2-1.3 1.3 0 2.4 0 3.8.2Zm0-1.6c-.7-.2-2-.3-3.4-.3-4.3 0-6.3 1-6.3 3.4s1.4 3.3 4.6 3.3c2.7 0 4.5-.6 5.1-2.3h.2V25c0 .9 0 1 .8 1h3.3c-.2-.6-.3-2-.3-3.3V19c0-2.7-1.6-4.5-6.8-4.5-2.2 0-4.7.4-6.6 1l.5 3.2c1.7-.7 4-1 5.8-1 2.5 0 3.2.5 3.2 1.7v.4Zm9.2 2.4h-3.4v.5c0 2.2 1.5 3.6 6.7 3.6 5 0 6.6-1.3 6.6-3.7 0-2.2-1-3.2-5.8-3.5-3.6-.1-4-.5-4-1s.5-.8 3-.8 3.2.3 3.2 1v.2a36.8 36.8 0 0 1 3.4 0v-.4c0-2.7-2.2-3.5-6.6-3.5-4.8 0-6.5 1.1-6.5 3.5 0 2 1.3 3.3 6 3.5 3.5.2 3.8.5 3.8 1 0 .6-.5.9-3 .9-2.7 0-3.4-.4-3.4-1.2Zm15.8-9.6a14 14 0 0 1-5 2.8V18h1.3v3.9c0 2.4 1.2 4.2 5.2 4.2 1.7 0 2.8-.1 4.2-.4a35 35 0 0 1-.3-3.3c-.9.2-2 .4-3 .4-1.7 0-2.3-.5-2.3-1.7v-3h5.3v-3.2h-5.3v-2.3Zm10.8 4.8v-2.5h-3.5a164 164 0 0 1 0 11h4.1v-4.5c0-2.5 1-3.2 3.2-3.2 1 0 1.8.2 2.5.4l.3-3.6a8 8 0 0 0-2.3-.3c-2 0-3.4.8-4.1 2.7h-.2Zm18.1 2.9c0 2-1.4 3-3.7 3-2.3 0-3.7-1-3.7-3s1.4-2.8 3.7-2.8c2.2 0 3.7.8 3.7 2.8Zm3.8 0c0-4-3.1-5.8-7.5-5.8s-7.4 1.8-7.4 5.7c0 4 2.8 6.1 7.4 6.1 4.6 0 7.5-2.1 7.5-6Z"/>
  <rect width="239" height="39" x=".5" y=".5" stroke="url(#b)" rx="3.5"/>
  <defs>
    <linearGradient id="a" x1="0" x2="177.8" y1="40" y2="-87" gradientUnits="userSpaceOnUse">
      <stop stop-color="#3245FF"/>
      <stop offset="1" stop-color="#BC52EE"/>
    </linearGradient>
    <linearGradient id="b" x1="0" x2="177.8" y1="40" y2="-87" gradientUnits="userSpaceOnUse">
      <stop stop-color="#3245FF"/>
      <stop offset="1" stop-color="#BC52EE"/>
    </linearGradient>
  </defs>
</svg>
