<svg xmlns="http://www.w3.org/2000/svg" fill="none" viewBox="0 0 395 213">
  <rect width="261.37" height="42.42" x=".68" y=".68" fill="#1A1B1E" rx="4.79"/>
  <rect width="261.37" height="42.42" x=".68" y=".68" fill="url(#a)" fill-opacity=".5" rx="4.79"/>
  <path fill="#fff" d="M35.9 26.9V15.55h3.2c2.6 0 3.89.99 3.89 3 0 .93-.28 1.77-1.38 2.24v.43c1.34.4 1.72 1.4 1.72 2.54 0 2.09-1.3 3.12-3.9 3.12h-3.54Zm1.37-1.25h2.24c1.69 0 2.38-.58 2.38-1.96 0-1.4-.7-1.97-2.38-1.97h-2.24v3.93Zm0-5.14h1.9c1.7 0 2.39-.53 2.39-1.86 0-1.31-.67-1.84-2.38-1.84h-1.9v3.7Zm12.05 6.65c-2.48 0-3.7-1.48-3.7-4.47v-7.13H47v6.93c0 2.34.7 3.34 2.32 3.34 1.63 0 2.32-1 2.32-3.34v-6.93H53v7.13c0 2.99-1.21 4.47-3.69 4.47Zm6.15-.27v-1.24h3V16.8h-3v-1.25h7.4v1.25h-3.01v8.84h3v1.24h-7.39Zm10.59 0V15.56h1.38v10.09h5.35v1.24h-6.73Zm12.1 0V16.81h-3.32v-1.25h8.04v1.25h-3.33V26.9h-1.38Zm16.75 0-1.15-11.33h1.34l.9 10.07.43.03 1-6.65h2.25l1 6.65.43-.03.9-10.07h1.34L102.2 26.9h-2.47l-.95-6.63h-.46l-.95 6.63H94.9Zm9.8 0v-1.24h3V16.8h-3v-1.25h7.38v1.25h-3v8.84h3v1.24h-7.39Zm12.84 0V16.81h-3.33v-1.25h8.05v1.25h-3.34V26.9h-1.38Zm12.86 0v-5.18h-4.64v5.18h-1.38V15.56h1.38v4.9h4.64v-4.9h1.37V26.9h-1.38Zm19.74 2.71c-.99-.9-1.28-2.8-.86-4.18.71.86 1.7 1.14 2.73 1.3 1.59.23 3.15.14 4.62-.58.17-.08.33-.2.51-.3.14.4.18.8.13 1.21-.12 1-.62 1.78-1.41 2.36-.32.24-.66.45-.99.67-1 .68-1.28 1.48-.9 2.64l.04.12c-.52-.23-.9-.56-1.18-1a2.8 2.8 0 0 1-.45-1.54c0-.27 0-.54-.04-.8-.1-.66-.4-.95-.98-.97a1.14 1.14 0 0 0-1.18.93c0 .04-.02.08-.04.14Zm-5.65-4.41s2.93-1.43 5.88-1.43l2.22-6.85c.08-.34.32-.56.6-.56.27 0 .51.22.6.56l2.21 6.85c3.5 0 5.89 1.43 5.89 1.43l-5-13.58c-.15-.4-.39-.66-.71-.66h-5.99c-.32 0-.55.26-.7.66-.02.02-5 13.58-5 13.58Zm30.95-1.98c0 1.2-1.5 1.92-3.57 1.92-1.35 0-1.82-.33-1.82-1.03 0-.74.59-1.09 1.94-1.09 1.21 0 2.25.02 3.45.17v.03Zm.02-1.48c-.74-.17-1.86-.27-3.2-.27-3.88 0-5.7.92-5.7 3.05 0 2.22 1.25 3.07 4.14 3.07 2.45 0 4.12-.61 4.73-2.13h.1c-.02.36-.04.73-.04 1.02 0 .78.13.85.78.85h3.02c-.16-.47-.26-1.79-.26-2.92 0-1.22.05-2.14.05-3.37 0-2.52-1.52-4.12-6.25-4.12-2.05 0-4.32.35-6.04.86.16.69.4 2.07.5 2.97 1.5-.7 3.63-1 5.27-1 2.27 0 2.9.52 2.9 1.57v.42Zm8.31 2.18c-.41.05-.97.05-1.55.05-.6 0-1.17-.01-1.55-.06l-.01.41c0 2.09 1.36 3.3 6.17 3.3 4.52 0 5.99-1.2 5.99-3.31 0-2-.97-2.99-5.27-3.2-3.34-.16-3.63-.52-3.63-.94 0-.48.42-.73 2.66-.73 2.32 0 2.95.31 2.95.98v.15a33.64 33.64 0 0 1 3.1.02v-.4c0-2.46-2.03-3.26-5.98-3.26-4.45 0-5.94 1.09-5.94 3.2 0 1.9 1.2 3.1 5.46 3.28 3.14.1 3.49.45 3.49.93 0 .52-.51.75-2.72.75-2.53 0-3.17-.35-3.17-1.07v-.1Zm14.48-8.79a12.8 12.8 0 0 1-4.56 2.54c.02.62.02 1.75.02 2.37l1.1.01-.03 3.57c0 2.22 1.17 3.89 4.8 3.89 1.53 0 2.55-.17 3.82-.43-.13-.82-.28-2.07-.33-3.02a9 9 0 0 1-2.76.38c-1.47 0-2.06-.4-2.06-1.55 0-1 0-1.94.02-2.8 1.87.01 3.75.05 4.85.08-.01-.87.02-2.12.07-2.95-1.6.03-3.4.05-4.87.05l.05-2.14h-.12Zm9.83 4.41.05-2.32h-3.3c.04 1.43.04 2.9.04 5.05s-.02 3.64-.05 5.06h3.79c-.07-1-.09-2.69-.09-4.12 0-2.27.93-2.92 3.01-2.92.98 0 1.67.11 2.28.33.01-.85.18-2.5.28-3.24a7.48 7.48 0 0 0-2.16-.3c-1.8-.01-3.11.72-3.72 2.47l-.13-.01Zm16.48 2.67c0 1.81-1.32 2.66-3.4 2.66-2.05 0-3.37-.8-3.37-2.66 0-1.87 1.34-2.57 3.38-2.57 2.05 0 3.39.75 3.39 2.57Zm3.44-.09c0-3.62-2.83-5.24-6.83-5.24-4.02 0-6.75 1.62-6.75 5.24 0 3.6 2.55 5.54 6.73 5.54 4.21 0 6.85-1.94 6.85-5.54Z"/>
  <rect width="261.37" height="42.42" x=".68" y=".68" stroke="url(#b)" stroke-width="1.37" rx="4.79"/>
  <rect width="327.05" height="53.37" x=".68" y="68.47" fill="#1A1B1E" rx="4.79"/>
  <rect width="327.05" height="53.37" x=".68" y="68.47" fill="url(#c)" fill-opacity=".5" rx="4.79"/>
  <path fill="#fff" d="M35.96 103.21V89.99h3.73c3.05 0 4.54 1.15 4.54 3.49 0 1.09-.32 2.07-1.6 2.62v.5c1.57.46 2 1.63 2 2.97 0 2.43-1.5 3.64-4.55 3.64h-4.12Zm1.6-1.46h2.61c1.98 0 2.78-.67 2.78-2.28 0-1.62-.82-2.3-2.78-2.3h-2.6v4.58Zm0-6h2.23c1.97 0 2.78-.6 2.78-2.16 0-1.53-.79-2.14-2.78-2.14h-2.22v4.3Zm14.06 7.77c-2.9 0-4.3-1.73-4.3-5.21v-8.32h1.6v8.09c0 2.72.8 3.89 2.7 3.89 1.9 0 2.7-1.17 2.7-3.9V90h1.61v8.32c0 3.48-1.42 5.2-4.3 5.2Zm7.18-.31v-1.46h3.5v-10.3h-3.5v-1.46h8.62v1.46h-3.5v10.3h3.5v1.46H58.8Zm12.35 0V89.99h1.6v11.76H79v1.46h-7.85Zm14.13 0V91.45h-3.89v-1.46h9.39v1.46h-3.9v11.76h-1.6Zm19.53 0-1.35-13.22h1.58l1.05 11.75.5.03 1.16-7.76h2.63l1.17 7.76.5-.03 1.05-11.75h1.55l-1.34 13.22h-2.87l-1.11-7.74h-.54l-1.11 7.74h-2.88Zm11.42 0v-1.46h3.51v-10.3h-3.5v-1.46h8.62v1.46h-3.51v10.3h3.5v1.46h-8.61Zm15 0V91.45h-3.9v-1.46h9.4v1.46h-3.9v11.76h-1.6Zm15 0v-6.05h-5.41v6.05h-1.61V89.99h1.6v5.71h5.41V90h1.61v13.21h-1.6Zm30.75 3.5c-1.49-1.36-1.92-4.2-1.3-6.27 1.07 1.3 2.56 1.71 4.1 1.95 2.38.36 4.72.22 6.94-.86.25-.13.48-.3.76-.46.2.6.26 1.2.19 1.82a5 5 0 0 1-2.12 3.55c-.48.35-.98.66-1.48 1-1.5 1.02-1.92 2.21-1.35 3.95l.06.19a3.98 3.98 0 0 1-1.77-1.5 4.22 4.22 0 0 1-.68-2.31c0-.4 0-.81-.06-1.21-.14-.98-.6-1.42-1.46-1.44a1.7 1.7 0 0 0-1.78 1.38c0 .07-.03.13-.05.2v.01Zm-8.48-6.61s4.4-2.14 8.81-2.14l3.33-10.29c.13-.5.5-.83.9-.83.41 0 .78.34.9.83l3.33 10.29c5.23 0 8.82 2.14 8.82 2.14l-7.5-20.38c-.2-.6-.57-.98-1.06-.98h-8.97c-.5 0-.84.38-1.07.98l-7.5 20.38Zm46.43-2.96c0 1.8-2.25 2.87-5.36 2.87-2.02 0-2.74-.5-2.74-1.55 0-1.1.9-1.62 2.91-1.62 1.83 0 3.39.02 5.19.25v.05Zm.02-2.23c-1.1-.25-2.79-.4-4.78-.4-5.83 0-8.57 1.37-8.57 4.58 0 3.33 1.88 4.6 6.22 4.6 3.68 0 6.17-.92 7.08-3.2h.15c-.02.55-.05 1.1-.05 1.52 0 1.18.2 1.28 1.16 1.28h4.55c-.25-.7-.4-2.68-.4-4.38 0-1.82.07-3.2.07-5.05 0-3.78-2.27-6.18-9.38-6.18-3.06 0-6.46.52-9.06 1.3.25 1.02.6 3.1.77 4.45 2.25-1.05 5.43-1.5 7.9-1.5 3.4 0 4.34.78 4.34 2.35v.63Zm12.47 3.28c-.62.07-1.46.07-2.32.07-.92 0-1.76-.02-2.32-.1l-.03.63c0 3.12 2.05 4.95 9.26 4.95 6.79 0 8.98-1.8 8.98-4.98 0-3-1.45-4.48-7.9-4.8-5-.23-5.45-.78-5.45-1.4 0-.73.64-1.1 4-1.1 3.48 0 4.42.47 4.42 1.47v.23a50.58 50.58 0 0 1 4.64.02l.02-.6c0-3.68-3.06-4.88-8.98-4.88-6.67 0-8.92 1.63-8.92 4.8 0 2.86 1.8 4.64 8.2 4.91 4.72.15 5.23.68 5.23 1.4 0 .78-.76 1.13-4.07 1.13-3.8 0-4.76-.53-4.76-1.6v-.15ZM249.14 85a19.19 19.19 0 0 1-6.84 3.8c.03.93.03 2.63.03 3.56l1.65.02a438.8 438.8 0 0 0-.05 5.36c0 3.32 1.75 5.83 7.21 5.83 2.3 0 3.83-.25 5.73-.65a47.7 47.7 0 0 1-.5-4.53c-1.13.37-2.56.57-4.14.57-2.2 0-3.09-.6-3.09-2.33 0-1.5 0-2.9.03-4.2a388 388 0 0 1 7.28.13c-.03-1.3.02-3.18.1-4.43-2.4.05-5.09.07-7.31.07l.07-3.2h-.17Zm14.74 6.6.08-3.47H259c.07 2.15.07 4.35.07 7.58 0 3.23-.02 5.45-.07 7.58h5.68c-.1-1.5-.13-4.03-.13-6.18 0-3.4 1.38-4.38 4.52-4.38 1.45 0 2.5.18 3.4.5.03-1.27.28-3.75.42-4.85a11 11 0 0 0-3.23-.45c-2.69-.03-4.67 1.07-5.58 3.7l-.2-.02Zm24.72 4c0 2.74-1.97 4.01-5.08 4.01-3.09 0-5.06-1.2-5.06-4s2-3.85 5.06-3.85c3.08 0 5.08 1.12 5.08 3.85Zm5.16-.12c0-5.43-4.25-7.85-10.24-7.85-6.03 0-10.13 2.42-10.13 7.85 0 5.4 3.83 8.31 10.1 8.31 6.32 0 10.27-2.9 10.27-8.3Z"/>
  <rect width="327.05" height="53.37" x=".68" y="68.47" stroke="url(#d)" stroke-width="1.37" rx="4.79"/>
  <rect width="392.74" height="64.32" x=".68" y="147.21" fill="#1A1B1E" rx="4.79"/>
  <rect width="392.74" height="64.32" x=".68" y="147.21" fill="url(#e)" fill-opacity=".5" rx="4.79"/>
  <path fill="#fff" d="M38.2 186.37v-15.1h4.28c3.48 0 5.18 1.3 5.18 3.98 0 1.24-.37 2.36-1.83 3v.56c1.8.53 2.3 1.87 2.3 3.4 0 2.78-1.74 4.16-5.22 4.16h-4.7Zm1.84-1.66h2.98c2.26 0 3.18-.77 3.18-2.61 0-1.86-.94-2.63-3.18-2.63h-2.98v5.24Zm0-6.86h2.54c2.26 0 3.18-.7 3.18-2.47 0-1.75-.9-2.45-3.18-2.45h-2.54v4.92Zm16.07 8.87c-3.3 0-4.93-1.97-4.93-5.96v-9.5h1.84v9.24c0 3.11.92 4.44 3.09 4.44 2.16 0 3.08-1.33 3.08-4.44v-9.24h1.84v9.5c0 3.99-1.62 5.96-4.92 5.96Zm8.2-.35v-1.66h4v-11.78h-4v-1.67h9.85v1.67h-4v11.78h4v1.66h-9.85Zm14.11 0v-15.1h1.84v13.44h7.14v1.66h-8.98Zm16.15 0v-13.44h-4.44v-1.67h10.73v1.67H96.4v13.44h-1.84Zm22.32 0-1.53-15.1h1.8l1.2 13.41.56.05 1.34-8.87h3l1.33 8.87.57-.05 1.2-13.42h1.78l-1.53 15.1h-3.28l-1.27-8.84h-.62l-1.27 8.85h-3.28Zm13.06 0v-1.66h4v-11.78h-4v-1.67h9.85v1.67h-4v11.78h4v1.66h-9.85Zm17.14 0v-13.44h-4.45v-1.67h10.73v1.67h-4.44v13.44h-1.84Zm17.13 0v-6.92h-6.17v6.92h-1.84v-15.1h1.84v6.52h6.17v-6.53h1.84v15.1h-1.84Zm37.4 8.4c-1.98-1.8-2.56-5.6-1.73-8.36 1.43 1.74 3.42 2.28 5.47 2.6 3.18.48 6.3.3 9.24-1.15.34-.17.65-.39 1.02-.61.28.8.35 1.6.25 2.43a6.65 6.65 0 0 1-2.82 4.73c-.64.47-1.31.88-1.97 1.33-2.02 1.36-2.56 2.95-1.8 5.27l.07.25a5.3 5.3 0 0 1-2.35-2c-.6-.94-.9-1.96-.91-3.08 0-.54 0-1.08-.08-1.62-.18-1.3-.8-1.88-1.95-1.91a2.28 2.28 0 0 0-2.36 1.84l-.08.28Zm-11.32-8.82s5.88-2.85 11.77-2.85l4.44-13.7c.16-.67.65-1.12 1.2-1.12.54 0 1.03.45 1.2 1.11l4.44 13.7c6.97 0 11.76 2.86 11.76 2.86l-10-27.16c-.28-.8-.77-1.32-1.42-1.32h-11.97c-.65 0-1.11.52-1.42 1.32l-10 27.16Zm61.92-3.95c0 2.4-3 3.84-7.14 3.84-2.7 0-3.66-.67-3.66-2.07 0-1.47 1.19-2.17 3.89-2.17 2.44 0 4.5.04 6.91.34v.06Zm.03-2.96a31.21 31.21 0 0 0-6.38-.54c-7.77 0-11.42 1.84-11.42 6.1 0 4.44 2.5 6.15 8.3 6.15 4.9 0 8.22-1.24 9.44-4.28h.2c-.04.74-.07 1.47-.07 2.04 0 1.57.26 1.7 1.55 1.7h6.05c-.33-.93-.52-3.57-.52-5.84 0-2.43.1-4.27.1-6.74 0-5.03-3.03-8.23-12.51-8.23-4.08 0-8.63.7-12.08 1.73a70.9 70.9 0 0 1 1.02 5.94c3-1.4 7.24-2 10.53-2 4.54 0 5.8 1.03 5.8 3.13v.84Zm16.62 4.36c-.82.1-1.94.1-3.1.1a26.4 26.4 0 0 1-3.09-.13l-.03.84c0 4.17 2.73 6.6 12.34 6.6 9.05 0 11.98-2.4 11.98-6.64 0-4-1.94-5.97-10.53-6.4-6.68-.3-7.27-1.04-7.27-1.87 0-.97.85-1.47 5.33-1.47 4.64 0 5.9.64 5.9 1.97v.3a66.3 66.3 0 0 1 6.18.03c0-.3.03-.56.03-.8 0-4.9-4.08-6.5-11.98-6.5-8.89 0-11.88 2.17-11.88 6.4 0 3.8 2.4 6.17 10.93 6.54 6.28.2 6.97.9 6.97 1.87 0 1.03-1.02 1.5-5.43 1.5-5.07 0-6.35-.7-6.35-2.13v-.2Zm28.97-17.58a25.6 25.6 0 0 1-9.12 5.08c.03 1.23.03 3.5.03 4.73l2.2.04c-.02 2.37-.06 5.23-.06 7.14 0 4.43 2.34 7.77 9.61 7.77 3.06 0 5.1-.34 7.64-.87a64 64 0 0 1-.66-6.04 18 18 0 0 1-5.53.77c-2.93 0-4.11-.8-4.11-3.1 0-2 0-3.87.03-5.6 3.75.03 7.5.1 9.71.16-.03-1.74.03-4.24.13-5.9-3.2.06-6.78.1-9.74.1l.1-4.28h-.23Zm19.66 8.81.1-4.63h-6.62c.1 2.86.1 5.8.1 10.1s-.04 7.28-.1 10.11h7.57c-.13-2-.17-5.37-.17-8.24 0-4.53 1.85-5.84 6.03-5.84 1.94 0 3.32.24 4.54.67.03-1.7.36-5 .56-6.47-1.25-.37-2.63-.6-4.31-.6-3.6-.03-6.22 1.43-7.44 4.94l-.26-.04Zm32.95 5.34c0 3.64-2.63 5.34-6.78 5.34-4.11 0-6.75-1.6-6.75-5.34 0-3.74 2.67-5.14 6.75-5.14 4.12 0 6.78 1.5 6.78 5.14Zm6.88-.17c0-7.24-5.66-10.47-13.66-10.47-8.03 0-13.5 3.23-13.5 10.47 0 7.2 5.1 11.08 13.47 11.08 8.42 0 13.69-3.87 13.69-11.08Z"/>
  <rect width="392.74" height="64.32" x=".68" y="147.21" stroke="url(#f)" stroke-width="1.37" rx="4.79"/>
  <defs>
    <linearGradient id="a" x1="0" x2="194.65" y1="43.79" y2="-95.29" gradientUnits="userSpaceOnUse">
      <stop stop-color="#3245FF"/>
      <stop offset="1" stop-color="#BC52EE"/>
    </linearGradient>
    <linearGradient id="b" x1="0" x2="194.65" y1="43.79" y2="-95.29" gradientUnits="userSpaceOnUse">
      <stop stop-color="#3245FF"/>
      <stop offset="1" stop-color="#BC52EE"/>
    </linearGradient>
    <linearGradient id="c" x1="0" x2="243.31" y1="122.53" y2="-51.33" gradientUnits="userSpaceOnUse">
      <stop stop-color="#3245FF"/>
      <stop offset="1" stop-color="#BC52EE"/>
    </linearGradient>
    <linearGradient id="d" x1="0" x2="243.31" y1="122.53" y2="-51.33" gradientUnits="userSpaceOnUse">
      <stop stop-color="#3245FF"/>
      <stop offset="1" stop-color="#BC52EE"/>
    </linearGradient>
    <linearGradient id="e" x1="0" x2="291.97" y1="212.21" y2="3.59" gradientUnits="userSpaceOnUse">
      <stop stop-color="#3245FF"/>
      <stop offset="1" stop-color="#BC52EE"/>
    </linearGradient>
    <linearGradient id="f" x1="0" x2="291.97" y1="212.21" y2="3.59" gradientUnits="userSpaceOnUse">
      <stop stop-color="#3245FF"/>
      <stop offset="1" stop-color="#BC52EE"/>
    </linearGradient>
  </defs>
</svg>
