<svg xmlns="http://www.w3.org/2000/svg" fill="none" width="192" height="32" viewBox="0 0 192 32">
  <rect width="191" height="31" x=".5" y=".5" fill="#1A1B1E" rx="3.5"/>
  <rect width="191" height="31" x=".5" y=".5" fill="url(#a)" fill-opacity=".5" rx="3.5"/>
  <path fill="#fff" d="M26.4 20v-8.28h2.34c1.91 0 2.85.72 2.85 2.18 0 .69-.2 1.3-1.01 1.65v.31c.98.29 1.26 1.02 1.26 1.86 0 1.52-.95 2.28-2.86 2.28H26.4Zm1.01-.91h1.63c1.24 0 1.74-.42 1.74-1.43 0-1.02-.51-1.44-1.74-1.44h-1.63v2.87Zm0-3.76h1.4c1.23 0 1.73-.38 1.73-1.35 0-.96-.49-1.35-1.74-1.35h-1.39v2.7Zm8.8 4.86c-1.8 0-2.7-1.08-2.7-3.26v-5.21h1.01v5.06c0 1.7.5 2.44 1.7 2.44 1.18 0 1.69-.73 1.69-2.44v-5.06h1v5.2c0 2.2-.88 3.27-2.7 3.27Zm4.5-.19v-.91h2.2v-6.46h-2.2v-.91h5.4v.91h-2.2v6.46h2.2V20h-5.4Zm7.74 0v-8.28h1v7.37h3.92V20h-4.92Zm8.85 0v-7.37h-2.44v-.91h5.88v.91H58.3V20h-1Zm12.23 0-.84-8.28h.98l.66 7.36.31.02.74-4.86h1.64l.73 4.86.31-.02.66-7.36h.98L74.86 20h-1.8l-.7-4.85h-.34l-.7 4.85h-1.8Zm7.16 0v-.91h2.2v-6.46h-2.2v-.91h5.4v.91h-2.2v6.46h2.2V20h-5.4Zm9.39 0v-7.37h-2.44v-.91h5.88v.91H87.1V20h-1.01Zm9.39 0v-3.8h-3.39V20h-1v-8.28h1v3.58h3.39v-3.58h1V20h-1Zm14.09 1.63c-.73-.66-.94-2.05-.64-3.06.52.64 1.25.84 2 .95 1.16.18 2.3.11 3.38-.42l.37-.22c.1.3.13.59.1.89-.1.73-.46 1.3-1.04 1.72-.23.18-.48.33-.72.5-.74.49-.94 1.07-.66 1.92l.03.09a1.94 1.94 0 0 1-.86-.73 2.07 2.07 0 0 1-.33-1.13c0-.2 0-.4-.03-.59-.07-.47-.3-.69-.71-.7a.83.83 0 0 0-.87.68l-.03.1Zm-4.14-3.23s2.14-1.04 4.3-1.04l1.62-5c.06-.25.24-.41.44-.41s.38.16.44.4l1.62 5.01a9.1 9.1 0 0 1 4.3 1.05l-3.66-9.93c-.1-.3-.28-.48-.52-.48h-4.37c-.24 0-.4.19-.52.48l-3.65 9.93Zm22.62-1.44c0 .88-1.1 1.4-2.6 1.4-1 0-1.34-.24-1.34-.75 0-.54.43-.8 1.42-.8.89 0 1.64.02 2.52.13v.02Zm.01-1.08c-.54-.12-1.36-.2-2.33-.2-2.84 0-4.17.67-4.17 2.23 0 1.63.91 2.25 3.03 2.25 1.8 0 3-.45 3.45-1.56h.07l-.02.74c0 .57.1.62.56.62h2.22a9 9 0 0 1-.2-2.13c0-.9.04-1.56.04-2.46 0-1.84-1.1-3.01-4.57-3.01-1.5 0-3.15.25-4.41.63.12.5.28 1.51.37 2.17a9.88 9.88 0 0 1 3.85-.73c1.66 0 2.11.38 2.11 1.14v.3Zm6.08 1.6c-.3.03-.71.03-1.13.03-.45 0-.86-.01-1.13-.05l-.02.3c0 1.53 1 2.42 4.51 2.42 3.31 0 4.38-.88 4.38-2.42 0-1.47-.7-2.19-3.85-2.34-2.44-.11-2.66-.38-2.66-.69 0-.35.32-.53 1.95-.53 1.7 0 2.16.23 2.16.72v.1a24.62 24.62 0 0 1 2.26.02v-.3c0-1.79-1.48-2.37-4.37-2.37-3.25 0-4.34.79-4.34 2.34 0 1.39.88 2.25 4 2.39 2.29.07 2.54.33 2.54.68 0 .38-.37.55-1.98.55-1.85 0-2.32-.26-2.32-.78v-.07Zm10.58-6.43a9.35 9.35 0 0 1-3.33 1.85l.01 1.73.8.02-.02 2.6c0 1.63.86 2.85 3.51 2.85 1.12 0 1.87-.13 2.8-.32-.1-.6-.21-1.51-.25-2.2-.55.18-1.25.27-2.02.27-1.07 0-1.5-.29-1.5-1.13l.01-2.05c1.37.01 2.74.04 3.55.06-.01-.63.01-1.55.05-2.16-1.17.03-2.48.04-3.56.04l.03-1.56h-.08Zm7.19 3.22c0-.63.02-1.17.03-1.7h-2.42a153.75 153.75 0 0 1 0 7.39h2.77a53.1 53.1 0 0 1-.06-3c0-1.67.67-2.14 2.2-2.14.7 0 1.21.08 1.66.24.01-.62.13-1.83.2-2.36a5.47 5.47 0 0 0-1.57-.22c-1.31-.01-2.28.52-2.72 1.8l-.1-.01Zm12.03 1.95c0 1.33-.96 1.95-2.47 1.95-1.5 0-2.47-.59-2.47-1.95 0-1.37.97-1.88 2.47-1.88 1.5 0 2.47.55 2.47 1.88Zm2.52-.06c0-2.65-2.07-3.83-5-3.83s-4.92 1.18-4.92 3.83c0 2.63 1.86 4.05 4.91 4.05 3.08 0 5-1.42 5-4.05Z"/>
  <rect width="191" height="31" x=".5" y=".5" stroke="url(#b)" rx="3.5"/>
  <defs>
    <linearGradient id="a" x1="0" x2="142.24" y1="32" y2="-69.64" gradientUnits="userSpaceOnUse">
      <stop stop-color="#3245FF"/>
      <stop offset="1" stop-color="#BC52EE"/>
    </linearGradient>
    <linearGradient id="b" x1="0" x2="142.24" y1="32" y2="-69.64" gradientUnits="userSpaceOnUse">
      <stop stop-color="#3245FF"/>
      <stop offset="1" stop-color="#BC52EE"/>
    </linearGradient>
  </defs>
</svg>
