<svg xmlns="http://www.w3.org/2000/svg" fill="none" viewBox="0 0 260 156">
  <g clip-path="url(#a)">
    <rect width="260" height="156" fill="#545864" rx="4"/>
    <path fill="#17191E" fill-opacity=".5" d="M0 0h32v156H0z"/>
    <circle cx="16" cy="20" r="12" fill="#858B98"/>
    <circle cx="16" cy="20" r="11.5" stroke="#17191E" stroke-opacity=".18"/>
    <g fill="#858B98" clip-path="url(#b)">
      <path d="M16 49.125a1.125 1.125 0 1 0 0-2.25 1.125 1.125 0 0 0 0 2.25Z"/>
      <path d="M16 42a6 6 0 1 1 0 12 6 6 0 0 1 0-12Zm-4.875 6a4.875 4.875 0 1 0 9.75 0 4.875 4.875 0 0 0-9.75 0Z"/>
    </g>
    <rect width="12" height="4" x="10" y="58" fill="#858B98" rx="2"/>
    <path fill="#858B98" d="M14.088 75.865a3.187 3.187 0 0 0 2.85 1.76h1.033a1.688 1.688 0 1 1 0 1.125h-1.034a4.302 4.302 0 0 1-3.187-1.408v2.629a1.688 1.688 0 1 1-1.125 0v-3.942a1.687 1.687 0 1 1 1.463-.163Zm-.9 6.26a.563.563 0 1 0 0-1.125.563.563 0 0 0 0 1.125Zm6.374-3.375a.563.563 0 1 0 0-1.125.563.563 0 0 0 0 1.125Zm-5.812-4.313a.563.563 0 1 0 0 .004v-.004Z"/>
    <rect width="12" height="4" x="10" y="88" fill="#858B98" rx="2"/>
    <g clip-path="url(#c)">
      <path fill="#858B98" d="M11.313 102.75h9.374c.725 0 1.313.588 1.313 1.312v6.376a1.314 1.314 0 0 1-1.313 1.312h-4.641l-1.93 1.93a1.097 1.097 0 0 1-1.19.235 1.09 1.09 0 0 1-.676-1.008v-1.157h-.938A1.313 1.313 0 0 1 10 110.438v-6.376c0-.724.588-1.312 1.313-1.312Zm-.188 1.312v6.376c0 .103.084.187.188.187h1.5a.56.56 0 0 1 .562.563v1.642l2.04-2.04a.561.561 0 0 1 .398-.165h4.874a.188.188 0 0 0 .188-.187v-6.376a.187.187 0 0 0-.188-.187h-9.375a.188.188 0 0 0-.187.187Zm3.96 1.29a.565.565 0 0 1 0 .796l-1.103 1.102 1.103 1.103a.56.56 0 0 1-.402.945.558.558 0 0 1-.393-.151l-1.5-1.499a.565.565 0 0 1 0-.796l1.5-1.5a.563.563 0 0 1 .795 0Zm1.83 0a.563.563 0 0 1 .795 0l1.5 1.5a.565.565 0 0 1 0 .796l-1.5 1.499a.56.56 0 0 1-.795-.794l1.102-1.103-1.102-1.102a.565.565 0 0 1 0-.796Z"/>
    </g>
    <rect width="12" height="4" x="10" y="118" fill="#858B98" rx="2"/>
    <path fill="#858B98" d="M13.778 145.628c-.725-.661-.936-2.049-.635-3.055.524.634 1.25.835 2 .948 1.16.175 2.3.11 3.377-.419.123-.061.237-.141.372-.223.1.293.127.588.092.889-.086.732-.451 1.298-1.032 1.726-.233.172-.478.325-.718.487-.738.497-.937 1.079-.66 1.927l.027.092a1.935 1.935 0 0 1-.86-.735 2.06 2.06 0 0 1-.332-1.121c-.003-.198-.003-.397-.03-.592-.065-.475-.288-.688-.71-.7a.83.83 0 0 0-.865.674c-.007.032-.017.064-.027.101v.001Zm-4.136-3.223s2.146-1.042 4.297-1.042l1.623-5.009c.06-.242.238-.406.438-.406s.378.164.438.406l1.623 5.009c2.548 0 4.297 1.042 4.297 1.042l-3.652-9.924c-.104-.292-.28-.481-.519-.481h-4.374c-.238 0-.407.189-.519.481l-3.652 9.924Z"/>
    <rect width="212" height="4" x="40" y="16" fill="#858B98" rx="2"/>
    <rect width="212" height="4" x="40" y="40" fill="#858B98" rx="2"/>
    <rect width="212" height="4" x="40" y="64" fill="#858B98" rx="2"/>
    <rect width="212" height="4" x="40" y="88" fill="#858B98" rx="2"/>
    <rect width="212" height="4" x="40" y="112" fill="#858B98" rx="2"/>
    <rect width="212" height="4" x="40" y="136" fill="#858B98" rx="2"/>
  </g>
  <rect width="259" height="155" x=".5" y=".5" stroke="#343841" rx="3.5"/>
  <defs>
    <clipPath id="a">
      <rect width="260" height="156" fill="#fff" rx="4"/>
    </clipPath>
    <clipPath id="b">
      <path fill="#fff" d="M10 42h12v12H10z"/>
    </clipPath>
    <clipPath id="c">
      <path fill="#fff" d="M10 102h12v12H10z"/>
    </clipPath>
  </defs>
</svg>
