<svg xmlns="http://www.w3.org/2000/svg" fill="none" viewBox="0 0 336 48" width="336" height="48">
  <rect width="335" height="47" x=".5" y=".5" fill="#1A1B1E" rx="3.5"/>
  <rect width="335" height="47" x=".5" y=".5" fill="url(#a)" fill-opacity=".4" rx="3.5"/>
  <path fill="#fff" d="M26.89 29V17.96h3.12c2.54 0 3.8.96 3.8 2.91 0 .91-.28 1.73-1.35 2.2v.41c1.31.38 1.68 1.36 1.68 2.48 0 2.03-1.27 3.04-3.81 3.04h-3.44Zm1.34-1.22h2.18c1.65 0 2.32-.56 2.32-1.9 0-1.36-.69-1.92-2.32-1.92h-2.18v3.82Zm0-5h1.86c1.65 0 2.32-.52 2.32-1.81 0-1.28-.66-1.8-2.32-1.8h-1.86v3.6Zm11.74 6.48c-2.41 0-3.6-1.44-3.6-4.36v-6.94h1.35v6.75c0 2.27.67 3.25 2.25 3.25 1.59 0 2.26-.98 2.26-3.25v-6.75h1.34v6.94c0 2.92-1.18 4.36-3.6 4.36Zm6-.26v-1.22h2.92v-8.6h-2.92v-1.22h7.2v1.22h-2.93v8.6h2.93V29h-7.2Zm10.3 0V17.96h1.35v9.82h5.22V29h-6.56Zm11.81 0v-9.82h-3.25v-1.22h7.84v1.22h-3.24V29h-1.35Zm16.3 0-1.11-11.04h1.31l.88 9.8.42.04.97-6.48h2.2l.97 6.48.42-.03.88-9.81h1.3L91.48 29h-2.4l-.93-6.46h-.44L86.79 29h-2.4Zm9.55 0v-1.22h2.93v-8.6h-2.93v-1.22h7.2v1.22h-2.92v8.6h2.92V29h-7.2Zm12.53 0v-9.82h-3.25v-1.22h7.84v1.22h-3.25V29h-1.34Zm12.52 0v-5.06h-4.51V29h-1.35V17.96h1.35v4.77h4.5v-4.77h1.35V29h-1.34Z"/>
  <path fill="#fff" fill-rule="evenodd" d="m153.98 18.36-3.4-7.36-3.4 7.36-.16.31-1.9-1.89a1.28 1.28 0 0 0-1.8 1.8l1.88 1.89-.2.1-.06.03-7.36 3.4 7.36 3.4.25.13h.01l-1.88 1.89a1.28 1.28 0 1 0 1.8 1.8l1.9-1.9.16.32 3.4 7.36 3.4-7.36.13-.26 1.85 1.84a1.28 1.28 0 1 0 1.8-1.8l-1.86-1.86.32-.16 7.36-3.4-7.36-3.4-.31-.16 1.85-1.86a1.28 1.28 0 1 0-1.8-1.8l-1.85 1.84a4.76 4.76 0 0 1-.12-.23l-.01-.03Zm-3.41.39-.45.97a7.84 7.84 0 0 1-3.83 3.83l-.98.45.98.45a7.84 7.84 0 0 1 3.83 3.83l.45.97.45-.97a7.84 7.84 0 0 1 3.82-3.83l.98-.45-.98-.45a7.84 7.84 0 0 1-3.82-3.83l-.45-.97Z" clip-rule="evenodd"/>
  <path fill="url(#b)" fill-rule="evenodd" d="m153.98 18.36-3.4-7.36-3.4 7.36-.16.31-1.9-1.89a1.28 1.28 0 0 0-1.8 1.8l1.88 1.89-.2.1-.06.03-7.36 3.4 7.36 3.4.25.13h.01l-1.88 1.89a1.28 1.28 0 1 0 1.8 1.8l1.9-1.9.16.32 3.4 7.36 3.4-7.36.13-.26 1.85 1.84a1.28 1.28 0 1 0 1.8-1.8l-1.86-1.86.32-.16 7.36-3.4-7.36-3.4-.31-.16 1.85-1.86a1.28 1.28 0 1 0-1.8-1.8l-1.85 1.84a4.76 4.76 0 0 1-.12-.23l-.01-.03Zm-3.41.39-.45.97a7.84 7.84 0 0 1-3.83 3.83l-.98.45.98.45a7.84 7.84 0 0 1 3.83 3.83l.45.97.45-.97a7.84 7.84 0 0 1 3.82-3.83l.98-.45-.98-.45a7.84 7.84 0 0 1-3.82-3.83l-.45-.97Z" clip-rule="evenodd"/>
  <path fill="#fff" d="M161.58 14.76a1.28 1.28 0 1 0-1.8-1.8l-.61.6a1.28 1.28 0 0 0 1.8 1.8l.61-.6Z"/>
  <path fill="url(#b)" d="M161.58 14.76a1.28 1.28 0 1 0-1.8-1.8l-.61.6a1.28 1.28 0 0 0 1.8 1.8l.61-.6Z"/>
  <path fill="#fff" d="M142.11 15.57c-.5.5-1.3.5-1.8 0l-.61-.6a1.28 1.28 0 0 1 1.8-1.8l.61.6c.5.5.5 1.3 0 1.8Z"/>
  <path fill="url(#b)" d="M142.11 15.57c-.5.5-1.3.5-1.8 0l-.61-.6a1.28 1.28 0 0 1 1.8-1.8l.61.6c.5.5.5 1.3 0 1.8Z"/>
  <path fill="#fff" d="M142.11 32.42c-.5-.5-1.3-.5-1.8 0l-.61.61a1.28 1.28 0 0 0 1.8 1.8l.61-.6c.5-.5.5-1.3 0-1.8Z"/>
  <path fill="url(#b)" d="M142.11 32.42c-.5-.5-1.3-.5-1.8 0l-.61.61a1.28 1.28 0 0 0 1.8 1.8l.61-.6c.5-.5.5-1.3 0-1.8Z"/>
  <path fill="#fff" d="M161.58 33.24a1.28 1.28 0 1 1-1.8 1.8l-.61-.6a1.28 1.28 0 0 1 1.8-1.81l.61.6Z"/>
  <path fill="url(#b)" d="M161.58 33.24a1.28 1.28 0 1 1-1.8 1.8l-.61-.6a1.28 1.28 0 0 1 1.8-1.81l.61.6Z"/>
  <path fill="#fff" fill-rule="evenodd" d="M247.19 31.03h-3.82a99.54 99.54 0 0 0 .07-4.23v-7.02c0-.77 0-1.5-.02-2.2l-.03-2.13c0-.7 0-1.44-.02-2.23h3.84l-.07 2.19v13.52l.05 2.1Zm47.9 0h-3.9l.02-2.05.02-2.46c.02-.9.02-1.83.02-2.83 0-.9-.15-1.63-.46-2.16a2.55 2.55 0 0 0-1.42-1.2 7.08 7.08 0 0 0-2.6-.39 8.8 8.8 0 0 0-2.14.25c-.66.17-1.24.43-1.75.79-.49.35-.87.8-1.15 1.38a4.38 4.38 0 0 0-.41 1.97v3.71l.02 1.24v.96c.02.28.02.54.02.79h-3.9c.02-.68.04-1.34.04-2l.02-2.21v-5.18c0-.76 0-1.52-.02-2.25v-2.21c0-.72 0-1.41-.02-2.07 0-.67-.01-1.3-.03-1.89h3.96l-.05 2.19c0 .67 0 1.36-.02 2.07a69.7 69.7 0 0 1-.05 2.7l.13.02c.25-.54.58-1.01.98-1.41a5.84 5.84 0 0 1 2.44-1.43c1-.3 2.17-.46 3.52-.46 1.05 0 2 .12 2.82.35a5.5 5.5 0 0 1 2.1 1.06 4.39 4.39 0 0 1 1.33 1.8c.3.71.46 1.57.46 2.57 0 .44 0 .84-.02 1.2v.98c0 .3 0 .6-.02.88v3.12c.01.73.03 1.45.07 2.17Zm-37.9-9.13a3.92 3.92 0 0 1 2.06-3.55c.7-.4 1.55-.7 2.58-.9a19.04 19.04 0 0 1 4.46-.27h1.66c.67 0 1.4 0 2.2.02.82.02 1.65.03 2.49.03h2.48v.46c0 .23 0 .49-.02.78v.78a9 9 0 0 1 .02.53 28.58 28.58 0 0 1-2.34-.1 289.63 289.63 0 0 0-2.07-.13v.15a6.25 6.25 0 0 1 2.18 1c.3.23.5.51.65.85.13.32.2.7.2 1.13a2.7 2.7 0 0 1-.76 1.93c-.24.28-.58.53-1 .76-.44.21-.96.4-1.57.55-.62.15-1.34.28-2.16.37a30 30 0 0 1-6.6-.17 1.86 1.86 0 0 0-.59.74c-.07.17-.1.35-.1.53 0 .3.1.5.34.62.25.13.57.19.99.19a91.5 91.5 0 0 0 5.66-.16c.82-.03 1.6-.05 2.32-.05 1.09 0 1.98.1 2.67.3.7.2 1.23.52 1.56.97.36.44.53 1.02.53 1.74 0 .4-.06.77-.18 1.1-.11.35-.3.65-.56.93a3.5 3.5 0 0 1-1.08.73c-.44.22-1 .4-1.7.56-.69.15-1.5.26-2.46.34a60.29 60.29 0 0 1-7.4 0 22 22 0 0 1-2.7-.32c-.67-.14-1.2-.3-1.56-.5a1.8 1.8 0 0 1-.74-.7 1.77 1.77 0 0 1 .05-1.65c.17-.25.41-.46.74-.65a5.54 5.54 0 0 1 1.7-.61v-.1a3.15 3.15 0 0 1-.72-.3c-.29-.18-.5-.4-.62-.64a1.82 1.82 0 0 1-.18-.83c0-.48.14-.9.44-1.24.3-.36.72-.65 1.24-.88.33-.15.7-.29 1.08-.4v-.04a6.55 6.55 0 0 1-1.36-.6c-.63-.4-1.1-.87-1.4-1.42-.3-.57-.44-1.2-.44-1.88Zm3.19 8.8c.1-.1.23-.2.38-.3.29.02.6.03.95.03a78.78 78.78 0 0 0 3.85-.1 98.12 98.12 0 0 1 4.04-.1c.48 0 .85.03 1.1.1.28.07.48.18.58.33a.8.8 0 0 1 .19.55c0 .23-.1.44-.28.62-.17.19-.47.34-.9.46-.41.12-.99.22-1.72.28a37.07 37.07 0 0 1-6.92-.11 3.65 3.65 0 0 1-1-.26c-.22-.1-.39-.23-.48-.37a.9.9 0 0 1 .2-1.13Zm9.94-8.8c0-.5-.17-.92-.51-1.27a3.13 3.13 0 0 0-1.56-.8c-.71-.2-1.63-.3-2.76-.3-1.16 0-2.09.1-2.81.3a3.3 3.3 0 0 0-1.59.8 1.75 1.75 0 0 0 0 2.42c.32.32.84.57 1.54.75.72.19 1.68.28 2.86.28 1.15 0 2.07-.08 2.78-.25.7-.19 1.22-.44 1.54-.76.34-.34.5-.73.5-1.17Zm-15.66-6.86a1.34 1.34 0 0 0 .02-.9.6.6 0 0 0-.2-.32.91.91 0 0 0-.42-.25 6.1 6.1 0 0 0-1.66-.23c-.48 0-.9.03-1.21.1-.3.04-.55.11-.72.22a.83.83 0 0 0-.34.4c-.06.13-.1.3-.1.47 0 .16.02.3.05.42.03.12.1.24.19.37.1.1.24.2.41.27.19.08.41.14.7.19a7.35 7.35 0 0 0 2.23-.03c.31-.07.55-.17.7-.3a.96.96 0 0 0 .35-.4Zm-4.19 15.99h3.82l-.04-1.66-.03-1.6V20.4a54.39 54.39 0 0 1 .07-3.17h-3.82l.03 1.6.02 1.57.02 1.63v3.84c0 .62 0 1.2-.02 1.78 0 .55 0 1.1-.02 1.68l-.03 1.7Zm-22.24 0h4a144.61 144.61 0 0 1-.09-2.79V24.9c0-.83.1-1.53.32-2.1a3.3 3.3 0 0 1 .95-1.4c.41-.35.9-.61 1.5-.78a9.59 9.59 0 0 1 5.38.35c0-.24.03-.5.06-.81l.1-.95.11-.92c.03-.29.07-.53.12-.73a9.32 9.32 0 0 0-3.34-.55c-.81 0-1.56.1-2.23.32-.66.2-1.24.51-1.75.94a5.36 5.36 0 0 0-1.52 2.33l-.16-.02v-.22l.05-1.63.04-1.5h-3.54a279.57 279.57 0 0 1 0 13.8Zm-37.14-13.8a88.91 88.91 0 0 1 2.37.02v-2.92c.31 0 .62 0 .95.02h2.18l.6-.02-.05 2.5v.44h3.48l2.62-.02c.84-.02 1.62-.02 2.32-.02a70.88 70.88 0 0 0-.07 2.02v.99c-.49-.02-1.02-.02-1.58-.02a64.1 64.1 0 0 0-1.78-.03l-1.9-.02c-.65-.02-1.3-.02-1.98-.02l-1.15-.02-.03 2.16v3.12c0 .59.11 1.09.33 1.5a2 2 0 0 0 1.1.9c.52.2 1.24.3 2.14.3a13.78 13.78 0 0 0 4.67-.69l.1.66.08.65c.05.21.09.43.12.66l.11.63.14.6c-.58.12-1.17.22-1.77.32a31.7 31.7 0 0 1-3.86.27 14.3 14.3 0 0 1-2.72-.23 6.95 6.95 0 0 1-1.95-.71c-.53-.32-.95-.7-1.27-1.13-.3-.43-.53-.9-.67-1.43a6.64 6.64 0 0 1-.2-1.7V22.5l.02-2.16v-.2h-.8l-1.52-.03v-1.42c0-.28-.01-.54-.03-.79v-.66Zm-7.9 11.4c-.6.07-1.38.1-2.3.1-1 0-1.84-.04-2.53-.12a6.36 6.36 0 0 1-1.65-.37 1.97 1.97 0 0 1-.9-.64 1.63 1.63 0 0 1-.28-.97v-.33c-.2.03-.44.05-.73.07h-1.54l-.58-.03-.46-.04v.23c.02.06.02.13 0 .2a4.43 4.43 0 0 0 .25 1.82c.2.48.51.9.93 1.27.4.35.95.65 1.63.9.67.23 1.48.4 2.41.5.95.12 2.07.19 3.34.19 1.53 0 2.82-.1 3.86-.28a8.35 8.35 0 0 0 2.56-.8 3.49 3.49 0 0 0 1.42-1.36c.3-.55.44-1.18.44-1.89 0-.69-.12-1.28-.35-1.77-.21-.5-.6-.93-1.15-1.27a7.23 7.23 0 0 0-2.3-.8 24.4 24.4 0 0 0-3.75-.41 31 31 0 0 1-3.03-.23 9.16 9.16 0 0 1-1.7-.37 1.69 1.69 0 0 1-.78-.53 1.2 1.2 0 0 1-.19-.67c0-.26.07-.48.2-.67.16-.2.41-.36.77-.48.35-.14.82-.24 1.42-.3a23.36 23.36 0 0 1 4.63.03c.63.06 1.12.17 1.5.34a1.56 1.56 0 0 1 1.05 1.5v.4l.67-.01h1.56c.2 0 .4 0 .57.02.19 0 .35 0 .49.02v-.23l.02-.23v-.23c0-.64-.1-1.2-.32-1.7a3.1 3.1 0 0 0-.99-1.24c-.43-.34-.97-.6-1.63-.8a11 11 0 0 0-2.28-.47 26.08 26.08 0 0 0-6.74.12 7.93 7.93 0 0 0-2.5.78c-.63.35-1.1.79-1.39 1.31a3.73 3.73 0 0 0-.43 1.84c0 .61.11 1.17.34 1.68.23.5.63.92 1.2 1.29.56.35 1.34.64 2.32.85 1 .21 2.25.36 3.77.44 1.23.04 2.21.11 2.95.2.75.1 1.32.22 1.7.37.4.16.67.33.8.53.14.2.21.43.21.7 0 .27-.07.51-.23.73-.15.21-.41.39-.78.53-.37.12-.87.22-1.5.3Zm114.86-8.4h.57v1.27c0 .54 0 1.1-.02 1.68 0 .57 0 1.12-.02 1.65v1.48c0 .73.11 1.4.34 2.02.25.61.62 1.14 1.13 1.59.52.44 1.2.79 2.02 1.03.83.25 1.83.37 3.01.37.7 0 1.33-.03 1.92-.1a17.42 17.42 0 0 0 3.42-.62l-.16-.98a229.62 229.62 0 0 1-.25-2.21c-.4.15-.82.28-1.27.4a12.85 12.85 0 0 1-2.94.27 7.4 7.4 0 0 1-2-.23 2.22 2.22 0 0 1-1.18-.8 2.74 2.74 0 0 1-.36-1.5v-3.18l.02-2.1 1.01.01a74.67 74.67 0 0 1 3.66.07c.58 0 1.13 0 1.66.02l1.44.02v-1.03l.03-1.1.04-1-2 .05h-1.95a39.7 39.7 0 0 0-1.91 0h-1.94v-.37c.04-.84.06-1.68.07-2.53h-.16a6.78 6.78 0 0 1-2.5 2.28 8.44 8.44 0 0 1-3.1 1.06v2.48h1.42ZM221.9 31.16h3.17l-.14-.71c-.04-.3-.08-.62-.11-.99l-.05-1.17-.02-1.22v-1.59l.05-1.5.02-1.56c0-.84-.15-1.6-.44-2.25a4.02 4.02 0 0 0-1.38-1.73 6.91 6.91 0 0 0-2.6-1.08 17.76 17.76 0 0 0-4.04-.39 26.67 26.67 0 0 0-5.73.62c-.9.19-1.74.4-2.51.67.05.18.1.4.14.67a22.1 22.1 0 0 1 .48 2.46c.68-.34 1.43-.6 2.25-.8a20.63 20.63 0 0 1 5.11-.65c.97 0 1.76.06 2.4.18.62.12 1.12.3 1.49.55.37.23.63.52.78.85.15.34.23.74.23 1.2 0 .25 0 .53-.02.85v.15c-.33-.07-.7-.14-1.1-.2a37 37 0 0 0-4.28-.25c-1.35 0-2.53.09-3.52.26-.99.15-1.8.4-2.44.73-.63.34-1.1.77-1.4 1.29a3.52 3.52 0 0 0-.47 1.84c0 .72.12 1.34.35 1.86.23.52.58.95 1.06 1.3.49.33 1.11.57 1.86.73.75.15 1.65.23 2.7.23 1.43 0 2.68-.15 3.74-.44a5.9 5.9 0 0 0 2.55-1.38c.4-.37.7-.8.9-1.3l.13.01a58.27 58.27 0 0 0-.04 1.8c0 .21.01.39.03.53.03.12.07.21.13.27.08.06.17.1.28.14l.44.02Zm-.94-5.86a31.7 31.7 0 0 0-2.58-.23 63 63 0 0 0-3.04-.07c-.7 0-1.3.04-1.8.14-.48.07-.88.19-1.19.34-.3.15-.53.35-.69.6-.14.24-.2.54-.2.87a1.6 1.6 0 0 0 .76 1.47c.27.16.63.28 1.07.37a12.97 12.97 0 0 0 4.21-.11c.76-.17 1.39-.4 1.9-.7.51-.28.9-.63 1.16-1.03.27-.4.4-.83.4-1.3v-.35Z" clip-rule="evenodd"/>
  <rect width="335" height="47" x=".5" y=".5" stroke="url(#g)" rx="3.5"/>
  <defs>
    <linearGradient id="a" x1="0" x2="221.84" y1="48" y2="-136.94" gradientUnits="userSpaceOnUse">
      <stop stop-color="#0D0099"/>
      <stop offset="1" stop-color="#8F7DE8"/>
    </linearGradient>
    <linearGradient id="b" x1="137.58" x2="162.46" y1="12.31" y2="37.53" gradientUnits="userSpaceOnUse">
      <stop stop-color="#FCECC5"/>
      <stop offset="1" stop-color="#EEBD52"/>
    </linearGradient>
    <linearGradient id="g" x1="0" x2="221.84" y1="48" y2="-136.94" gradientUnits="userSpaceOnUse">
      <stop stop-color="#0D0099"/>
      <stop offset="1" stop-color="#8F7DE8"/>
    </linearGradient>
  </defs>
</svg>
