<svg xmlns="http://www.w3.org/2000/svg" fill="none" viewBox="0 0 280 40" width="280" height="40">
  <rect width="279" height="39" x=".5" y=".5" fill="#1A1B1E" rx="3.5"/>
  <rect width="279" height="39" x=".5" y=".5" fill="url(#a)" fill-opacity=".4" rx="3.5"/>
  <path fill="#fff" d="M25.67 25v-9.66h2.73c2.23 0 3.32.84 3.32 2.55 0 .8-.24 1.51-1.18 1.92v.36c1.15.34 1.47 1.19 1.47 2.17 0 1.78-1.1 2.66-3.33 2.66h-3.01Zm1.18-1.06h1.9c1.44 0 2.03-.5 2.03-1.67 0-1.19-.6-1.68-2.03-1.68h-1.9v3.35Zm0-4.39h1.62c1.44 0 2.03-.44 2.03-1.58 0-1.12-.57-1.57-2.03-1.57h-1.62v3.15Zm10.27 5.67c-2.12 0-3.15-1.26-3.15-3.8v-6.08h1.17v5.9c0 2 .59 2.85 1.98 2.85 1.38 0 1.97-.85 1.97-2.84v-5.91h1.18v6.08c0 2.54-1.04 3.8-3.15 3.8Zm5.24-.22v-1.06h2.56V16.4h-2.56v-1.06h6.3v1.06H46.1v7.54h2.56V25h-6.3Zm9.03 0v-9.66h1.17v8.6h4.57V25h-5.74Zm10.32 0v-8.6h-2.84v-1.06h6.86v1.06h-2.84V25H61.7Zm14.27 0L75 15.34h1.15l.77 8.58.36.03.86-5.67h1.91l.86 5.67.36-.03.77-8.58h1.14L82.2 25h-2.1l-.82-5.66h-.39L78.1 25H76Zm8.35 0v-1.06h2.57V16.4h-2.57v-1.06h6.3v1.06h-2.56v7.54h2.56V25h-6.3Zm10.96 0v-8.6h-2.84v-1.06h6.86v1.06h-2.84V25h-1.18Zm10.96 0v-4.42h-3.95V25h-1.18v-9.66h1.18v4.17h3.95v-4.17h1.17V25h-1.17Z"/>
  <path fill="#fff" fill-rule="evenodd" d="M135.14 15.66 132.52 10l-2.62 5.66-.12.24-1.46-1.45a.98.98 0 1 0-1.38 1.38l1.44 1.45-.16.08-.04.02-5.66 2.62 5.66 2.62.2.1-1.44 1.45a.98.98 0 1 0 1.38 1.39l1.46-1.46.13.24 2.61 5.66 2.62-5.66.1-.2 1.42 1.42a.98.98 0 0 0 1.39-1.4l-1.43-1.42.24-.12 5.66-2.62-5.66-2.62a3.66 3.66 0 0 1-.24-.12l1.43-1.43a.98.98 0 1 0-1.4-1.38l-1.41 1.41a4.92 4.92 0 0 1-.1-.17v-.03Zm-2.63.3-.34.75a6.03 6.03 0 0 1-2.95 2.94l-.75.35.75.35a6 6 0 0 1 2.94 2.94l.35.75.35-.75a6.03 6.03 0 0 1 2.94-2.94l.75-.35-.75-.35a6.03 6.03 0 0 1-2.94-2.94l-.35-.75Z" clip-rule="evenodd"/>
  <path fill="url(#b)" fill-rule="evenodd" d="M135.14 15.66 132.52 10l-2.62 5.66-.12.24-1.46-1.45a.98.98 0 1 0-1.38 1.38l1.44 1.45-.16.08-.04.02-5.66 2.62 5.66 2.62.2.1-1.44 1.45a.98.98 0 1 0 1.38 1.39l1.46-1.46.13.24 2.61 5.66 2.62-5.66.1-.2 1.42 1.42a.98.98 0 0 0 1.39-1.4l-1.43-1.42.24-.12 5.66-2.62-5.66-2.62a3.66 3.66 0 0 1-.24-.12l1.43-1.43a.98.98 0 1 0-1.4-1.38l-1.41 1.41a4.92 4.92 0 0 1-.1-.17v-.03Zm-2.63.3-.34.75a6.03 6.03 0 0 1-2.95 2.94l-.75.35.75.35a6 6 0 0 1 2.94 2.94l.35.75.35-.75a6.03 6.03 0 0 1 2.94-2.94l.75-.35-.75-.35a6.03 6.03 0 0 1-2.94-2.94l-.35-.75Z" clip-rule="evenodd"/>
  <path fill="#fff" d="M140.99 12.9a.98.98 0 0 0-1.4-1.4l-.46.47a.98.98 0 0 0 1.39 1.4l.47-.48Z"/>
  <path fill="url(#b)" d="M140.99 12.9a.98.98 0 0 0-1.4-1.4l-.46.47a.98.98 0 0 0 1.39 1.4l.47-.48Z"/>
  <path fill="#fff" d="M126 13.52a.98.98 0 0 1-1.38 0l-.47-.47a.98.98 0 0 1 1.4-1.39l.46.47c.38.38.38 1 0 1.39Z"/>
  <path fill="url(#b)" d="M126 13.52a.98.98 0 0 1-1.38 0l-.47-.47a.98.98 0 0 1 1.4-1.39l.46.47c.38.38.38 1 0 1.39Z"/>
  <path fill="#fff" d="M126 26.48a.98.98 0 0 0-1.38 0l-.47.47a.98.98 0 0 0 1.4 1.39l.46-.47c.38-.38.38-1 0-1.39Z"/>
  <path fill="url(#b)" d="M126 26.48a.98.98 0 0 0-1.38 0l-.47.47a.98.98 0 0 0 1.4 1.39l.46-.47c.38-.38.38-1 0-1.39Z"/>
  <path fill="#fff" d="M140.99 27.1a.98.98 0 0 1-1.4 1.4l-.46-.47a.98.98 0 0 1 1.39-1.4l.47.47Z"/>
  <path fill="url(#b)" d="M140.99 27.1a.98.98 0 0 1-1.4 1.4l-.46-.47a.98.98 0 0 1 1.39-1.4l.47.47Z"/>
  <path fill="#fff" fill-rule="evenodd" d="M206.84 25.4h-2.94a73.62 73.62 0 0 0 .05-3.26v-5.39l-.01-1.7-.02-1.62c0-.55 0-1.12-.02-1.72h2.95l-.05 1.68V23.8l.04 1.6Zm36.85 0h-3v-1.57a124.4 124.4 0 0 0 .04-4.07c0-.7-.11-1.25-.35-1.66a1.95 1.95 0 0 0-1.1-.92c-.5-.2-1.16-.3-2-.3a6.3 6.3 0 0 0-1.64.2c-.5.12-.96.32-1.35.6-.37.26-.67.62-.88 1.05-.21.43-.32.94-.32 1.53v2.85l.02.95v.74l.01.6h-3l.03-1.53.02-1.7v-3.98c0-.6 0-1.17-.02-1.74v-1.7c0-.55 0-1.08-.02-1.59l-.01-1.45h3.04a532.77 532.77 0 0 1-.05 3.27 51.6 51.6 0 0 1-.04 2.08l.1.02c.2-.42.45-.78.75-1.09a4.5 4.5 0 0 1 1.88-1.1 9.25 9.25 0 0 1 2.7-.35c.82 0 1.54.09 2.18.27.64.17 1.17.45 1.61.81.45.35.8.81 1.03 1.38.23.56.35 1.22.35 1.98 0 .34 0 .65-.02.92v.76c0 .24 0 .46-.02.68v2.4l.06 1.67Zm-29.16-7.02a3.01 3.01 0 0 1 1.59-2.72 6.46 6.46 0 0 1 1.98-.7 14.62 14.62 0 0 1 3.43-.2h1.28l1.7.01 1.9.02h1.92v.35l-.02.6v.6l.02.41a21.91 21.91 0 0 1-1.8-.07 225.5 225.5 0 0 0-1.6-.1v.11c.3.08.58.17.81.28.37.14.66.3.87.5.22.17.39.39.5.65.1.24.15.53.15.86a2.07 2.07 0 0 1-.58 1.49c-.19.21-.45.4-.78.58-.33.17-.73.3-1.2.43-.47.12-1.03.21-1.66.28-.64.06-1.37.09-2.18.09-1.13 0-2.1-.07-2.9-.22l-.18.17c-.12.13-.2.26-.27.4a.97.97 0 0 0-.08.41c0 .22.08.38.26.48.19.1.44.14.76.14a70.41 70.41 0 0 0 4.36-.12c.63-.03 1.23-.04 1.78-.04.84 0 1.52.08 2.06.23.54.15.94.4 1.2.74.27.35.4.8.4 1.35 0 .3-.04.59-.14.85-.08.26-.22.5-.42.7-.2.22-.48.4-.83.57-.35.17-.78.3-1.31.43-.53.11-1.16.2-1.9.26a46.36 46.36 0 0 1-5.7 0c-.84-.06-1.53-.14-2.06-.25a4 4 0 0 1-1.2-.39 1.38 1.38 0 0 1-.57-.53 1.36 1.36 0 0 1 .03-1.27c.13-.19.32-.35.57-.5a4.27 4.27 0 0 1 1.3-.47v-.07a3.5 3.5 0 0 1-.54-.23 1.42 1.42 0 0 1-.48-.5 1.4 1.4 0 0 1-.14-.64c0-.36.11-.68.34-.95.23-.27.55-.5.95-.67.26-.13.53-.23.83-.3v-.05c-.4-.13-.75-.28-1.04-.45-.48-.3-.84-.67-1.08-1.1a3.13 3.13 0 0 1-.34-1.45Zm2.45 6.78c.08-.08.18-.15.3-.24.22.02.47.03.73.03a60.43 60.43 0 0 0 2.96-.08 75.89 75.89 0 0 1 3.1-.08c.38 0 .66.03.86.08.21.05.36.13.44.25.1.1.14.25.14.43 0 .17-.07.33-.21.47a1.5 1.5 0 0 1-.69.36c-.32.1-.76.16-1.33.21a28.48 28.48 0 0 1-5.33-.09 2.82 2.82 0 0 1-.75-.2.88.88 0 0 1-.38-.28.69.69 0 0 1 .16-.87Zm7.65-6.78c0-.38-.13-.7-.4-.97a2.4 2.4 0 0 0-1.2-.62 8.02 8.02 0 0 0-2.12-.23c-.88 0-1.6.08-2.16.23-.55.14-.96.35-1.22.62a1.35 1.35 0 0 0 0 1.86c.25.24.65.44 1.19.58.55.14 1.28.21 2.2.21.88 0 1.59-.06 2.13-.2.55-.13.94-.33 1.19-.58.26-.26.39-.56.39-.9Zm-12.04-5.27a1.04 1.04 0 0 0 .01-.7.48.48 0 0 0-.16-.24.7.7 0 0 0-.31-.2 4.7 4.7 0 0 0-1.27-.18c-.39 0-.7.03-.95.08-.23.04-.42.1-.54.18a.65.65 0 0 0-.27.3.91.91 0 0 0-.07.37c0 .12.01.22.03.32.03.1.07.19.15.28.08.08.18.15.31.21.15.06.32.1.53.14a5.17 5.17 0 0 0 1.72-.01c.25-.06.43-.14.55-.23a.8.8 0 0 0 .27-.32Zm-3.22 12.3h2.93a406.68 406.68 0 0 0-.05-2.52v-5.66a43.88 43.88 0 0 1 .05-2.44h-2.94c.02.42.02.84.02 1.24l.02 1.2.02 1.26v2.95c0 .47 0 .93-.02 1.36 0 .43 0 .86-.02 1.3l-.01 1.3Zm-17.12 0h3.08a87.77 87.77 0 0 1-.07-2.15v-2.58c0-.64.09-1.17.25-1.6.17-.46.4-.82.73-1.09a3 3 0 0 1 1.15-.6 7.36 7.36 0 0 1 4.14.27c0-.18.03-.39.05-.62l.07-.73.09-.7c.02-.23.05-.42.09-.57a7.16 7.16 0 0 0-4.28-.18c-.51.15-.96.4-1.35.73a4.1 4.1 0 0 0-1.17 1.79l-.13-.02v-.16l.04-1.26.04-1.15h-2.72a207.43 207.43 0 0 1 0 10.62ZM163.7 14.79a68.72 68.72 0 0 1 1.81.02l.01-.92v-1.33c.24 0 .48 0 .73.02h1.68l.46-.02-.04 1.93v.33H171l2.02-.01 1.79-.02a42.39 42.39 0 0 0-.06 1.56v.76l-1.22-.02-1.36-.02-1.47-.02a63.93 63.93 0 0 0-2.4-.03l-.02 1.66v2.4c0 .46.08.84.25 1.16.16.3.44.54.84.69.4.15.96.23 1.65.23a10.59 10.59 0 0 0 3.6-.53l.06.51.07.5.1.5.08.49.1.46c-.44.1-.9.17-1.35.24a24.55 24.55 0 0 1-2.98.22c-.8 0-1.5-.06-2.09-.18a5.33 5.33 0 0 1-1.5-.55c-.4-.25-.72-.54-.97-.87-.24-.33-.41-.7-.52-1.1-.1-.4-.16-.83-.16-1.3v-2.71c.02-.54.02-1.1.02-1.66v-.16h-.62L163.7 17v-1.1l-.02-.6v-.51Zm-6.08 8.78a20.94 20.94 0 0 1-3.71-.03 4.9 4.9 0 0 1-1.28-.28 1.44 1.44 0 0 1-.69-.5c-.14-.2-.21-.44-.21-.73v-.27c-.16.02-.34.04-.57.05h-1.18l-.44-.01-.36-.04v.34a3.4 3.4 0 0 0 .2 1.4c.15.36.38.68.7.97.32.27.74.5 1.26.69.52.17 1.14.3 1.86.39.73.1 1.58.14 2.56.14 1.18 0 2.17-.07 2.97-.21a6.42 6.42 0 0 0 1.97-.62c.5-.29.87-.63 1.1-1.05.22-.42.33-.9.33-1.45 0-.53-.09-.98-.26-1.36a2.11 2.11 0 0 0-.89-.97 5.58 5.58 0 0 0-1.77-.62 19.6 19.6 0 0 0-2.88-.32 23.8 23.8 0 0 1-2.34-.18 7.08 7.08 0 0 1-1.3-.28 1.3 1.3 0 0 1-.6-.4.95.95 0 0 1-.15-.52c0-.2.05-.37.16-.51.12-.16.31-.28.58-.38.28-.1.64-.18 1.1-.23a17.51 17.51 0 0 1 3.56.02c.48.05.86.14 1.15.27a1.2 1.2 0 0 1 .81 1.15v.32c.13-.02.3-.02.52-.02h1.2c.15 0 .3 0 .44.02l.37.01v-.17a.89.89 0 0 0 .02-.18v-.18c0-.5-.08-.93-.25-1.3-.16-.38-.42-.7-.76-.96a3.79 3.79 0 0 0-1.26-.62 8.36 8.36 0 0 0-1.75-.36 19.4 19.4 0 0 0-2.28-.12 17 17 0 0 0-2.9.21 6.1 6.1 0 0 0-1.93.6c-.48.28-.84.61-1.06 1.01a3.2 3.2 0 0 0-.07 2.71c.17.38.48.7.92 1 .43.26 1.03.48 1.78.65.77.16 1.74.27 2.9.33.95.04 1.7.09 2.27.16.58.07 1.02.17 1.31.28.3.12.51.26.62.41a.97.97 0 0 1-.02 1.1c-.12.16-.32.3-.6.4-.28.1-.67.18-1.15.24Zm88.35-6.47h.44v.98c0 .4 0 .84-.02 1.29l-.01 1.27v1.13c0 .57.09 1.09.26 1.56.19.47.48.88.87 1.22.4.34.92.61 1.56.8.63.19 1.4.28 2.31.28a14.08 14.08 0 0 0 2.8-.25c.44-.08.87-.18 1.3-.3l-.12-.76-.1-.86-.09-.84a7.82 7.82 0 0 1-3.24.52 5.6 5.6 0 0 1-1.54-.18 1.7 1.7 0 0 1-.9-.62 2.1 2.1 0 0 1-.28-1.15v-2.44l.01-1.63.78.02a57.38 57.38 0 0 1 2.82.05c.44 0 .87 0 1.27.02.4 0 .77 0 1.11.02v-.8c.02-.28.02-.57.02-.85l.04-.76-1.54.04h-1.5c-.5-.02-.99-.02-1.47 0h-1.5l.01-.29.05-1.94h-.12a5.25 5.25 0 0 1-1.93 1.75 6.53 6.53 0 0 1-2.39.81v1.92h1.1Zm-58.57 8.4h2.44a7 7 0 0 1-.2-1.3 577.94 577.94 0 0 1-.04-1.84v-1.22c0-.39.02-.77.03-1.15l.02-1.2c0-.65-.11-1.23-.34-1.74a3.1 3.1 0 0 0-1.06-1.33 5.32 5.32 0 0 0-2-.83c-.84-.2-1.88-.3-3.11-.3a20.5 20.5 0 0 0-6.34 1c.04.13.07.3.1.5a15.16 15.16 0 0 1 .38 1.9 8.1 8.1 0 0 1 1.73-.62 15.85 15.85 0 0 1 5.77-.35c.49.1.87.23 1.15.42.29.18.49.4.6.66.12.26.18.56.18.92 0 .18 0 .4-.02.65v.11a21.38 21.38 0 0 0-4.14-.34c-1.04 0-1.94.07-2.7.2-.76.11-1.38.3-1.88.56-.48.26-.84.6-1.08 1-.23.4-.35.87-.35 1.4 0 .56.09 1.04.26 1.44.18.4.45.73.82 1a4 4 0 0 0 1.43.56c.58.12 1.27.17 2.07.17 1.1 0 2.07-.1 2.88-.33a4.55 4.55 0 0 0 1.97-1.06c.3-.29.53-.62.69-1h.1a35.68 35.68 0 0 0-.01 1.8c.02.09.05.16.1.2a.6.6 0 0 0 .22.11l.33.02Zm-.72-4.5c-.67-.09-1.33-.15-1.99-.18-.73-.03-1.5-.05-2.33-.05-.54 0-1 .03-1.38.1-.38.06-.69.15-.92.27-.24.12-.42.27-.53.46-.1.19-.16.41-.16.67 0 .25.04.47.14.66.1.18.24.34.44.47.21.12.5.22.83.29a9.97 9.97 0 0 0 3.24-.09 5 5 0 0 0 1.45-.53c.4-.23.7-.5.9-.8.2-.3.3-.64.3-1V21Z" clip-rule="evenodd"/>
  <rect width="279" height="39" x=".5" y=".5" stroke="url(#g)" rx="3.5"/>
  <defs>
    <linearGradient id="a" x1="0" x2="184.87" y1="40" y2="-114.11" gradientUnits="userSpaceOnUse">
      <stop stop-color="#0D0099"/>
      <stop offset="1" stop-color="#8F7DE8"/>
    </linearGradient>
    <linearGradient id="b" x1="122.52" x2="141.66" y1="11.01" y2="30.41" gradientUnits="userSpaceOnUse">
      <stop stop-color="#FCECC5"/>
      <stop offset="1" stop-color="#EEBD52"/>
    </linearGradient>
    <linearGradient id="g" x1="0" x2="184.87" y1="40" y2="-114.11" gradientUnits="userSpaceOnUse">
      <stop stop-color="#0D0099"/>
      <stop offset="1" stop-color="#8F7DE8"/>
    </linearGradient>
  </defs>
</svg>
