<svg xmlns="http://www.w3.org/2000/svg" fill="none" viewBox="0 0 224 32" width="224" height="32">
  <rect width="223" height="31" x=".5" y=".5" fill="#1A1B1E" rx="3.5"/>
  <rect width="223" height="31" x=".5" y=".5" fill="url(#a)" fill-opacity=".4" rx="3.5"/>
  <path fill="#fff" d="M27.22 20v-8.28h2.34c1.91 0 2.85.72 2.85 2.18 0 .69-.2 1.3-1.01 1.65v.31c.98.29 1.26 1.02 1.26 1.86 0 1.52-.95 2.28-2.86 2.28h-2.58Zm1.01-.91h1.63c1.24 0 1.74-.42 1.74-1.43 0-1.02-.51-1.44-1.74-1.44h-1.63v2.87Zm0-3.76h1.4c1.23 0 1.73-.38 1.73-1.35 0-.96-.49-1.35-1.74-1.35h-1.39v2.7Zm8.8 4.86c-1.8 0-2.7-1.08-2.7-3.26v-5.21h1.01v5.06c0 1.7.5 2.44 1.7 2.44 1.18 0 1.69-.73 1.69-2.44v-5.06h1v5.2c0 2.2-.88 3.27-2.7 3.27Zm4.5-.19v-.91h2.2v-6.46h-2.2v-.91h5.4v.91h-2.2v6.46h2.2V20h-5.4Zm7.74 0v-8.28h1v7.37h3.92V20h-4.92Zm8.85 0v-7.37h-2.44v-.91h5.88v.91h-2.43V20h-1.01Zm12.23 0-.84-8.28h.98l.66 7.36.31.02.74-4.86h1.64l.73 4.86.31-.02.66-7.36h.98L75.68 20h-1.8l-.7-4.85h-.34l-.7 4.85h-1.8Zm7.16 0v-.91h2.2v-6.46h-2.2v-.91h5.4v.91h-2.2v6.46h2.2V20h-5.4Zm9.39 0v-7.37h-2.44v-.91h5.88v.91h-2.43V20H86.9Zm9.39 0v-3.8h-3.38V20H91.9v-8.28h1v3.58h3.39v-3.58h1V20h-1Z"/>
  <path fill="#fff" fill-rule="evenodd" d="m114.92 13.01-1.8-3.9-1.8 3.9a2.5 2.5 0 0 1-.08.17l-1-1a.68.68 0 0 0-.96.95l1 1-.11.06h-.03l-3.9 1.81 3.9 1.8.13.07-1 1a.68.68 0 0 0 .96.96l1-1 .1.16 1.8 3.9 1.8-3.9.06-.14.98.98a.68.68 0 1 0 .96-.96l-.99-.98.17-.09 3.9-1.8-3.9-1.8a2.3 2.3 0 0 1-.17-.09l.99-.98a.68.68 0 1 0-.96-.95l-.98.97a4.11 4.11 0 0 1-.06-.12v-.02Zm-1.8.2-.24.53a4.15 4.15 0 0 1-2.03 2.02l-.51.24.51.24a4.1 4.1 0 0 1 2.03 2.03l.24.51.24-.51a4.15 4.15 0 0 1 2.02-2.03l.52-.24-.52-.24a4.15 4.15 0 0 1-2.02-2.02l-.24-.52Z" clip-rule="evenodd"/>
  <path fill="url(#b)" fill-rule="evenodd" d="m114.92 13.01-1.8-3.9-1.8 3.9a2.5 2.5 0 0 1-.08.17l-1-1a.68.68 0 0 0-.96.95l1 1-.11.06h-.03l-3.9 1.81 3.9 1.8.13.07-1 1a.68.68 0 0 0 .96.96l1-1 .1.16 1.8 3.9 1.8-3.9.06-.14.98.98a.68.68 0 1 0 .96-.96l-.99-.98.17-.09 3.9-1.8-3.9-1.8a2.3 2.3 0 0 1-.17-.09l.99-.98a.68.68 0 1 0-.96-.95l-.98.97a4.11 4.11 0 0 1-.06-.12v-.02Zm-1.8.2-.24.53a4.15 4.15 0 0 1-2.03 2.02l-.51.24.51.24a4.1 4.1 0 0 1 2.03 2.03l.24.51.24-.51a4.15 4.15 0 0 1 2.02-2.03l.52-.24-.52-.24a4.15 4.15 0 0 1-2.02-2.02l-.24-.52Z" clip-rule="evenodd"/>
  <path fill="#fff" d="M118.95 11.1a.68.68 0 0 0-.96-.95l-.32.32a.68.68 0 1 0 .96.96l.32-.32Z"/>
  <path fill="url(#b)" d="M118.95 11.1a.68.68 0 0 0-.96-.95l-.32.32a.68.68 0 1 0 .96.96l.32-.32Z"/>
  <path fill="#fff" d="M108.64 11.54a.68.68 0 0 1-.96 0l-.32-.32a.68.68 0 0 1 .96-.96l.32.32c.26.27.26.7 0 .96Z"/>
  <path fill="url(#b)" d="M108.64 11.54a.68.68 0 0 1-.96 0l-.32-.32a.68.68 0 0 1 .96-.96l.32.32c.26.27.26.7 0 .96Z"/>
  <path fill="#fff" d="M108.64 20.46a.68.68 0 0 0-.96 0l-.32.32a.68.68 0 0 0 .96.96l.32-.32a.68.68 0 0 0 0-.96Z"/>
  <path fill="url(#b)" d="M108.64 20.46a.68.68 0 0 0-.96 0l-.32.32a.68.68 0 0 0 .96.96l.32-.32a.68.68 0 0 0 0-.96Z"/>
  <path fill="#fff" d="M118.95 20.89a.68.68 0 0 1-.96.96l-.32-.32a.68.68 0 1 1 .96-.96l.32.32Z"/>
  <path fill="url(#b)" d="M118.95 20.89a.68.68 0 0 1-.96.96l-.32-.32a.68.68 0 1 1 .96-.96l.32.32Z"/>
  <path fill="#fff" fill-rule="evenodd" d="M164.28 19.72h-2.02l.02-1.12.01-1.12v-3.71a54.67 54.67 0 0 0-.02-2.3l-.01-1.18h2.03l-.04 1.16v7.16l.03 1.11Zm25.36 0h-2.07l.02-1.08v-1.3c.02-.48.02-.98.02-1.5 0-.48-.08-.86-.24-1.15-.16-.3-.4-.5-.76-.63a5.24 5.24 0 0 0-2.51-.08c-.35.1-.66.23-.92.42-.26.19-.47.43-.61.73-.15.3-.22.64-.22 1.05v1.96l.01.66v.5l.01.42h-2.07a51.45 51.45 0 0 0 .04-2.23v-2.73l-.01-1.2v-1.17a47.93 47.93 0 0 0-.03-2.1h2.1a200.25 200.25 0 0 1-.04 2.26 36.66 36.66 0 0 1-.03 1.43l.07.01a2.71 2.71 0 0 1 1.82-1.5 6.37 6.37 0 0 1 3.35-.06c.44.12.81.3 1.11.56.31.24.55.56.7.95.17.38.25.83.25 1.36l-.01.63v.53l-.01.46v1.66l.03 1.14Zm-20.07-4.83a2.07 2.07 0 0 1 1.1-1.88 4.4 4.4 0 0 1 1.36-.47 10.07 10.07 0 0 1 2.36-.15h.88l1.17.01 1.31.01h1.32v.25l-.01.41v.7a15.07 15.07 0 0 1-1.23-.05 167.4 167.4 0 0 0-1.1-.08v.08c.21.06.4.12.56.2.25.09.45.2.6.33.15.12.27.27.34.45.07.17.1.37.1.6a1.41 1.41 0 0 1-.39 1.02 1.8 1.8 0 0 1-.54.4c-.23.12-.5.22-.83.3-.32.08-.7.14-1.14.2a16.42 16.42 0 0 1-3.5-.1l-.12.12a.97.97 0 0 0-.18.28.66.66 0 0 0-.06.28c0 .15.06.26.18.33.13.06.3.1.52.1a48.32 48.32 0 0 0 3-.1l1.23-.02c.58 0 1.05.06 1.41.16.38.1.65.28.83.51.19.24.28.55.28.93 0 .21-.03.4-.1.58-.05.18-.15.34-.29.5-.14.14-.33.27-.57.38a4.2 4.2 0 0 1-.9.3c-.37.07-.8.13-1.3.18a31.96 31.96 0 0 1-3.92 0c-.6-.05-1.07-.1-1.43-.18a3.1 3.1 0 0 1-.83-.26.95.95 0 0 1-.39-.37.94.94 0 0 1 .02-.88c.1-.13.22-.24.4-.34a2.9 2.9 0 0 1 .9-.32v-.05c-.16-.05-.28-.1-.38-.16a.88.88 0 0 1-.33-.34.98.98 0 0 1-.1-.44 1 1 0 0 1 .23-.66c.16-.19.38-.34.66-.46.18-.08.37-.15.57-.21v-.03a4 4 0 0 1-.72-.31 2.12 2.12 0 0 1-.74-.76 2.2 2.2 0 0 1-.23-1Zm1.7 4.66.2-.16.5.01a41.74 41.74 0 0 0 2.03-.04 52.31 52.31 0 0 1 2.15-.07c.25 0 .44.03.58.07.15.03.25.09.3.17.07.07.1.17.1.29 0 .12-.05.23-.14.33-.1.1-.25.18-.48.24-.22.07-.52.11-.91.15a19.6 19.6 0 0 1-3.67-.06 2.1 2.1 0 0 1-.52-.14.6.6 0 0 1-.26-.2.47.47 0 0 1 .11-.6Zm5.25-4.66a.93.93 0 0 0-.26-.67 1.65 1.65 0 0 0-.83-.43c-.38-.1-.86-.16-1.46-.16-.61 0-1.1.05-1.49.16-.38.1-.66.24-.84.43a.93.93 0 0 0 0 1.27c.17.18.44.3.82.4.38.1.88.15 1.5.15.61 0 1.1-.04 1.48-.13.37-.1.65-.23.82-.4a.85.85 0 0 0 .26-.62Zm-8.28-3.63a.72.72 0 0 0 0-.48.33.33 0 0 0-.1-.17.48.48 0 0 0-.22-.13c-.1-.04-.2-.07-.35-.09a3.55 3.55 0 0 0-1.17.01.98.98 0 0 0-.38.13.45.45 0 0 0-.19.2.63.63 0 0 0-.04.26c0 .08 0 .15.02.22.02.06.05.13.1.2.06.05.13.1.22.14.1.04.22.07.36.1a3.56 3.56 0 0 0 1.18-.02 1 1 0 0 0 .38-.15.52.52 0 0 0 .19-.22Zm-2.22 8.46h2.02c0-.3-.02-.6-.03-.88v-5.57l.03-.86h-2.02a31.18 31.18 0 0 1 .02 1.68l.01.87v2.03a35.27 35.27 0 0 1-.02 1.83l-.01.9Zm-11.78 0h2.12a60.67 60.67 0 0 1-.05-1.47v-1.78c0-.44.06-.8.17-1.1.12-.32.28-.57.5-.75.22-.19.48-.33.8-.42a5.07 5.07 0 0 1 2.85.18 11.1 11.1 0 0 1 .08-.92l.06-.49a2 2 0 0 1 .06-.39 4.92 4.92 0 0 0-2.95-.12c-.35.1-.66.27-.92.5a2.81 2.81 0 0 0-.81 1.24l-.09-.02v-.11a114.69 114.69 0 0 1 .06-1.66h-1.88c.02.53.02 1.08.02 1.65a147.42 147.42 0 0 1-.02 5.66Zm-19.66-7.3a47.45 47.45 0 0 1 1.25 0v-1.54l.5.01h1.16l.31-.01-.02 1.33v.23h1.84a82.21 82.21 0 0 1 2.62-.03 38.12 38.12 0 0 0-.04 1.08V14l-.84-.01-.94-.02h-1a44.19 44.19 0 0 0-1.66-.03l-.02 1.14v1.66c0 .3.06.57.17.8.12.2.31.36.59.47.27.1.65.15 1.13.15a7.26 7.26 0 0 0 2.47-.37l.05.36.05.34c.03.12.05.23.06.36l.06.33.08.31a17.53 17.53 0 0 1-1.9.27 11.21 11.21 0 0 1-2.53-.07 4.1 4.1 0 0 1-1.03-.38 2.4 2.4 0 0 1-.67-.6 2.3 2.3 0 0 1-.35-.75 3.27 3.27 0 0 1-.11-.9v-3.11h-.42l-.8-.01v-.76l-.01-.41v-.36Zm-4.19 6.03a12.6 12.6 0 0 1-2.55 0 3.72 3.72 0 0 1-.88-.2c-.22-.1-.38-.2-.48-.34a.87.87 0 0 1-.14-.51v-.18l-.4.03h-.81l-.3-.01-.25-.03v.34c0 .32.04.6.14.86.1.25.27.47.48.67.22.18.51.34.87.47.36.12.78.21 1.28.27a14 14 0 0 0 3.81-.05c.56-.1 1.01-.24 1.35-.43.35-.2.6-.43.76-.71.15-.3.23-.63.23-1s-.06-.68-.18-.94c-.12-.27-.32-.5-.61-.67-.3-.18-.7-.32-1.22-.43a14.1 14.1 0 0 0-1.99-.22c-.66-.02-1.2-.06-1.6-.12a4.4 4.4 0 0 1-.9-.2.9.9 0 0 1-.42-.27.66.66 0 0 1-.1-.36.6.6 0 0 1 .11-.35c.08-.1.22-.2.4-.26.2-.07.44-.12.76-.15a12.03 12.03 0 0 1 2.45 0c.33.04.6.1.79.2a.83.83 0 0 1 .56.78v.22l.35-.01h.83a3.62 3.62 0 0 1 .56.02v-.12l.01-.12v-.12c0-.34-.05-.64-.17-.9a1.64 1.64 0 0 0-.52-.66 2.6 2.6 0 0 0-.87-.43c-.34-.11-.74-.2-1.2-.24a13.01 13.01 0 0 0-3.57.06 4.2 4.2 0 0 0-1.33.41c-.33.2-.57.42-.73.7a2.23 2.23 0 0 0-.05 1.87c.13.25.34.48.64.67.3.2.7.34 1.23.46.52.1 1.2.19 2 .23a22 22 0 0 1 1.55.1c.4.05.7.12.9.2a.9.9 0 0 1 .43.28.69.69 0 0 1-.01.76.86.86 0 0 1-.41.28c-.2.06-.46.11-.8.15Zm60.82-4.44h.3v.67a34.34 34.34 0 0 1-.02 1.76v.78c0 .4.06.75.18 1.07.13.33.33.6.6.84.27.24.63.42 1.07.55.44.13.97.2 1.6.2a9.68 9.68 0 0 0 1.92-.17l.9-.21-.08-.52a60.6 60.6 0 0 1-.14-1.17 5.41 5.41 0 0 1-2.23.35c-.42 0-.77-.04-1.06-.12a1.17 1.17 0 0 1-.62-.43c-.13-.2-.2-.47-.2-.79v-1.68l.02-1.12.53.01a39.61 39.61 0 0 1 1.94.04 30 30 0 0 1 1.65.02v-1.13l.03-.52-1.06.02h-3.08l.01-.2.04-1.33h-.09a3.55 3.55 0 0 1-1.32 1.2 4.45 4.45 0 0 1-1.65.56v1.32h.76Zm-40.32 5.78h1.68a4.51 4.51 0 0 1-.13-.9 411.72 411.72 0 0 1-.04-1.27v-.84a852 852 0 0 1 .04-1.62 3 3 0 0 0-.23-1.19 2.13 2.13 0 0 0-.73-.91c-.34-.25-.8-.44-1.38-.57a9.26 9.26 0 0 0-2.14-.21 14.1 14.1 0 0 0-4.36.68l.07.35a11.75 11.75 0 0 1 .26 1.3c.35-.17.75-.31 1.19-.42a10.97 10.97 0 0 1 3.97-.24c.33.06.6.16.8.29.19.12.32.27.4.45.09.18.13.39.13.63l-.01.45v.08a14.77 14.77 0 0 0-2.85-.24c-.72 0-1.34.05-1.87.14a4.1 4.1 0 0 0-1.29.39c-.33.18-.58.4-.74.68-.16.28-.25.6-.25.98s.06.7.19.98c.12.28.3.5.56.68.26.18.59.31.98.4a8.3 8.3 0 0 0 3.41-.12 3.1 3.1 0 0 0 1.36-.73 2 2 0 0 0 .47-.68h.07a17.83 17.83 0 0 0 0 1.23.3.3 0 0 0 .06.15.4.4 0 0 0 .15.07l.23.01Zm-.5-3.1c-.45-.06-.91-.1-1.36-.12a33.3 33.3 0 0 0-1.6-.04c-.38 0-.7.02-.96.07-.26.04-.47.1-.63.18a.88.88 0 0 0-.37.32.92.92 0 0 0-.1.46 1 1 0 0 0 .09.45c.06.13.17.24.3.33.15.08.34.15.58.2a6.86 6.86 0 0 0 2.23-.06c.4-.1.73-.21 1-.37.27-.15.48-.33.62-.55.13-.2.2-.44.2-.69v-.18Z" clip-rule="evenodd"/>
  <rect width="223" height="31" x=".5" y=".5" stroke="url(#g)" rx="3.5"/>
  <defs>
    <linearGradient id="a" x1="0" x2="147.9" y1="32" y2="-91.29" gradientUnits="userSpaceOnUse">
      <stop stop-color="#0D0099"/>
      <stop offset="1" stop-color="#8F7DE8"/>
    </linearGradient>
    <linearGradient id="b" x1="106.24" x2="119.41" y1="9.81" y2="23.16" gradientUnits="userSpaceOnUse">
      <stop stop-color="#FCECC5"/>
      <stop offset="1" stop-color="#EEBD52"/>
    </linearGradient>
    <linearGradient id="g" x1="0" x2="147.9" y1="32" y2="-91.29" gradientUnits="userSpaceOnUse">
      <stop stop-color="#0D0099"/>
      <stop offset="1" stop-color="#8F7DE8"/>
    </linearGradient>
  </defs>
</svg>
