<svg xmlns="http://www.w3.org/2000/svg" fill="none" width="140" height="20" xmlns:v="https://vecta.io/nano"><rect width="139" height="19" x=".5" y=".5" fill="#1a1b1e" rx="3.5"/><rect width="139" height="19" x=".5" y=".5" fill="url(#A)" fill-opacity=".4" rx="3.5"/><g fill="#fff"><path d="M8.41 13V6.79h1.85c1.44 0 2.15.54 2.15 1.63 0 .52-.17.98-.76 1.22v.25c.74.21.95.76.95 1.4 0 1.14-.72 1.71-2.15 1.71H8.41zm.9-.8h1.14c.86 0 1.2-.29 1.2-1 0-.7-.35-.98-1.2-.98H9.32v1.98zm0-2.75h.97c.85 0 1.2-.27 1.2-.93 0-.67-.34-.94-1.2-.94h-.96v1.87zm6.7 3.7c-1.4 0-2.07-.8-2.07-2.45V6.8h.91v3.83c0 1.16.34 1.64 1.15 1.64s1.15-.48 1.15-1.64V6.79h.91v3.92c0 1.64-.66 2.43-2.06 2.43zm3.53-.15v-.83h1.58V7.62h-1.58v-.83h4.08v.83h-1.58v4.55h1.58V13h-4.08zm5.95 0V6.79h.9v5.38h2.86V13H25.5zm6.78 0V7.62h-1.76v-.83h4.44v.83H33.2V13h-.92zm9.57 0l-.58-6.21h.88l.39 5.23.24.03.57-3.55h1.1l.57 3.55.24-.03.39-5.23h.87L45.93 13H44.5L44 9.63h-.26L43.26 13h-1.42zm5.58 0v-.83H49V7.62h-1.58v-.83h4.08v.83h-1.58v4.55h1.58V13h-4.08zm7.16 0V7.62H52.8v-.83h4.45v.83H55.5V13h-.92zm7.2 0v-2.77h-2.33V13h-.9V6.79h.9V9.4h2.33V6.79h.9V13h-.9z"/><path d="m75.32 7.93-1.24-2.7-1.25 2.7a1.7 1.7 0 0 1-.06.12l-.7-.7a.47.47 0 0 0-.66.66l.7.7a1.7 1.7 0 0 1-.08.03l-.02.01L69.3 10l2.7 1.25.1.04-.7.7a.47.47 0 0 0 .67.66l.7-.7.05.12 1.25 2.7 1.24-2.7.05-.1.68.68a.47.47 0 0 0 .66-.66l-.68-.68.12-.06 2.7-1.25-2.7-1.25a1.69 1.69 0 0 1-.12-.06l.68-.68a.47.47 0 0 0-.66-.66l-.68.68a1.8 1.8 0 0 1-.04-.09Zm-1.25.14-.16.36a2.87 2.87 0 0 1-1.4 1.4l-.36.17.35.17a2.8 2.8 0 0 1 1.4 1.4l.17.36.17-.36a2.8 2.8 0 0 1 1.4-1.4L76 10l-.36-.17a2.87 2.87 0 0 1-1.4-1.4l-.17-.36Z" fill-rule="evenodd"/></g><path fill="url(#B)" fill-rule="evenodd" d="m75.32 7.93-1.24-2.7-1.25 2.7a1.7 1.7 0 0 1-.06.12l-.7-.7a.47.47 0 0 0-.66.66l.7.7a1.7 1.7 0 0 1-.08.03l-.02.01L69.3 10l2.7 1.25.1.04-.7.7a.47.47 0 0 0 .67.66l.7-.7.05.12 1.25 2.7 1.24-2.7.05-.1.68.68a.47.47 0 0 0 .66-.66l-.68-.68.12-.06 2.7-1.25-2.7-1.25a1.69 1.69 0 0 1-.12-.06l.68-.68a.47.47 0 0 0-.66-.66l-.68.68a1.8 1.8 0 0 1-.04-.09Zm-1.25.14-.16.36a2.87 2.87 0 0 1-1.4 1.4l-.36.17.35.17a2.8 2.8 0 0 1 1.4 1.4l.17.36.17-.36a2.8 2.8 0 0 1 1.4-1.4L76 10l-.36-.17a2.87 2.87 0 0 1-1.4-1.4l-.17-.36Z"/><path fill="#fff" d="M78.11 6.61a.47.47 0 0 0-.66-.66l-.22.22a.47.47 0 0 0 .66.67l.22-.23Z"/><path fill="url(#B)" d="M78.11 6.61a.47.47 0 0 0-.66-.66l-.22.22a.47.47 0 0 0 .66.67l.22-.23Z"/><path fill="#fff" d="M70.97 6.91a.47.47 0 0 1-.66 0l-.22-.22a.47.47 0 1 1 .66-.66l.22.22c.19.18.19.48 0 .66Z"/><path fill="url(#B)" d="M70.97 6.91a.47.47 0 0 1-.66 0l-.22-.22a.47.47 0 1 1 .66-.66l.22.22c.19.18.19.48 0 .66Z"/><path fill="#fff" d="M70.97 13.09a.47.47 0 0 0-.66 0l-.22.22a.47.47 0 1 0 .66.66l.22-.22a.47.47 0 0 0 0-.66Z"/><path fill="url(#B)" d="M70.97 13.09a.47.47 0 0 0-.66 0l-.22.22a.47.47 0 1 0 .66.66l.22-.22a.47.47 0 0 0 0-.66Z"/><path fill="#fff" d="M78.11 13.39a.47.47 0 1 1-.66.66l-.22-.22a.47.47 0 0 1 .66-.67l.22.23Z"/><path fill="url(#B)" d="M78.11 13.39a.47.47 0 1 1-.66.66l-.22-.22a.47.47 0 0 1 .66-.67l.22.23Z"/><path fill="#fff" fill-rule="evenodd" d="M109.5 12.58h-1.4a18.68 18.68 0 0 0 .03-1.55V8.45a41.84 41.84 0 0 0-.02-1.58v-.82h1.4l-.02.8v4.96l.01.77zm17.57 0h-1.43a28.36 28.36 0 0 0 .01-1.66l.01-1.03c0-.34-.06-.6-.17-.8a.93.93 0 0 0-.52-.43 3.22 3.22 0 0 0-1.74-.05c-.24.06-.45.15-.64.28-.18.13-.32.3-.42.5a1.67 1.67 0 0 0-.15.73v2.17l.01.29h-1.43l.02-.74V7.5a36.67 36.67 0 0 0-.02-1.45h1.45l-.02.8a32.74 32.74 0 0 1-.01 1.42l-.01.33h.04c.1-.2.22-.36.36-.51.24-.24.54-.41.9-.52a4.41 4.41 0 0 1 2.33-.05c.3.09.55.22.76.4.22.16.38.38.5.65.1.26.16.58.16.95v.8l-.02.32v1.14l.03.8zm-13.9-3.35c0-.3.06-.55.2-.76a1.33 1.33 0 0 1 .56-.54c.25-.15.56-.26.94-.33a6.98 6.98 0 0 1 1.64-.1h.6a42.3 42.3 0 0 1 1.72.02h.92v.17l-.01.28v.49a10.43 10.43 0 0 1-.85-.04 111.91 111.91 0 0 0-.76-.05v.05l.39.13c.17.07.3.15.4.24.11.08.2.19.24.31.06.12.08.26.08.42a1 1 0 0 1-.28.7 1.24 1.24 0 0 1-.37.28 2.8 2.8 0 0 1-.57.2 6.06 6.06 0 0 1-1.83.18c-.54 0-1-.03-1.38-.1l-.1.08a.68.68 0 0 0-.12.19.45.45 0 0 0-.04.2c0 .1.04.18.13.22.09.05.2.07.36.07a33.66 33.66 0 0 0 2.07-.06l.86-.02c.4 0 .72.04.97.11.26.08.45.2.58.36a1 1 0 0 1 .2.64c0 .14-.03.28-.08.4a.88.88 0 0 1-.2.34 1.12 1.12 0 0 1-.4.27 2.9 2.9 0 0 1-.62.2c-.25.06-.55.1-.9.13s-.76.04-1.22.04c-.6 0-1.1-.01-1.5-.04l-.98-.12a2.14 2.14 0 0 1-.58-.18.66.66 0 0 1-.27-.26.65.65 0 0 1 .02-.6.8.8 0 0 1 .27-.24 2.02 2.02 0 0 1 .62-.23v-.03a1.27 1.27 0 0 1-.26-.11.6.6 0 0 1-.23-.24.67.67 0 0 1-.06-.3.7.7 0 0 1 .16-.46c.11-.13.26-.23.45-.32l.4-.14v-.02a1.93 1.93 0 0 1-.5-.22 1.4 1.4 0 0 1-.51-.52 1.5 1.5 0 0 1-.16-.7zm1.17 3.23l.14-.11h.35a29 29 0 0 0 1.4-.03 36.45 36.45 0 0 1 1.5-.04 1.98 1.98 0 0 1 .4.04c.1.03.17.07.2.12a.3.3 0 0 1 .08.2c0 .09-.04.16-.1.23a.72.72 0 0 1-.34.17 10.24 10.24 0 0 1-2.56.12 4.82 4.82 0 0 1-.97-.15.41.41 0 0 1-.18-.14.33.33 0 0 1 .08-.41zm3.64-3.23a.65.65 0 0 0-.18-.47 1.15 1.15 0 0 0-.58-.3 4.8 4.8 0 0 0-2.04 0 1.2 1.2 0 0 0-.58.3.64.64 0 0 0 0 .89c.12.12.3.21.57.28.26.07.6.1 1.04.1.42 0 .76-.03 1.02-.1.26-.06.45-.15.57-.27a.6.6 0 0 0 .18-.43zm-5.74-2.51a.5.5 0 0 0 .01-.33.23.23 0 0 0-.08-.12.33.33 0 0 0-.15-.1 2.25 2.25 0 0 0-.6-.08 2.81 2.81 0 0 0-.45.03.67.67 0 0 0-.26.09.31.31 0 0 0-.13.14.44.44 0 0 0-.03.18l.01.15.07.14c.04.04.1.07.15.1a1.38 1.38 0 0 0 .26.07 2.48 2.48 0 0 0 .81-.01.88.88 0 0 0 .27-.11.4.4 0 0 0 .12-.15zm-1.53 5.86h1.4l-.02-.61V8.11l.02-.6h-1.4a23.97 23.97 0 0 1 .01 1.17l.01.6v1.41a22.55 22.55 0 0 1-.01 1.26l-.01.63zm-8.16 0h1.47l-.02-.46-.02-.56v-1.24c0-.3.05-.55.12-.76a1.23 1.23 0 0 1 .9-.8 3.5 3.5 0 0 1 1.97.13 11.15 11.15 0 0 1 .14-1.26 3.42 3.42 0 0 0-2.04-.08c-.24.07-.45.19-.64.35a1.94 1.94 0 0 0-.56.85h-.06v-.09l.02-.6.02-.54h-1.3l.02 1.13a94.27 94.27 0 0 1-.02 3.93zM88.93 7.52a32.77 32.77 0 0 1 .87 0V6.46l.35.01h1.02l-.02.91v.16h1.28a56.72 56.72 0 0 1 1.8-.01 25.94 25.94 0 0 0-.02.74v.36a18.68 18.68 0 0 0-1.23-.02 28 28 0 0 0-1.42-.01h-.43v1.93c0 .21.04.4.12.55.07.14.2.25.4.33.2.07.45.1.78.1a6.13 6.13 0 0 0 1.72-.25l.03.25.03.23.05.25.04.23.05.22a12.06 12.06 0 0 1-1.32.18 7.76 7.76 0 0 1-1.74-.05 2.54 2.54 0 0 1-.72-.26 1.55 1.55 0 0 1-.46-.41 1.6 1.6 0 0 1-.25-.53c-.05-.19-.07-.4-.07-.62V8.58h-.85V7.51zm-2.9 4.18a8.73 8.73 0 0 1-1.76 0 2.33 2.33 0 0 1-.61-.14.72.72 0 0 1-.33-.24.6.6 0 0 1-.1-.35v-.13l-.27.02h-.77l-.18-.02v.24c0 .21.03.41.1.59.07.17.18.33.33.46a2.13 2.13 0 0 0 .6.33c.25.08.55.15.89.18a9.68 9.68 0 0 0 2.64-.03c.39-.07.7-.17.93-.3.25-.13.42-.3.53-.5.1-.2.16-.43.16-.68 0-.26-.04-.47-.13-.65a1 1 0 0 0-.42-.47c-.2-.12-.48-.22-.84-.3a9.34 9.34 0 0 0-1.38-.14l-1.11-.09a3.37 3.37 0 0 1-.63-.13.62.62 0 0 1-.28-.2.46.46 0 0 1-.07-.24c0-.1.03-.18.08-.25a.58.58 0 0 1 .27-.17 1.63 1.63 0 0 1 .53-.11 8.35 8.35 0 0 1 1.7 0c.22.03.4.07.54.13a.57.57 0 0 1 .39.55v.15h.82a2.54 2.54 0 0 1 .38.01v-.08l.01-.09v-.08a1.73 1.73 0 0 0-.11-.63 1.07 1.07 0 0 0-.37-.45 1.8 1.8 0 0 0-.6-.3 3.97 3.97 0 0 0-.83-.17 9 9 0 0 0-2.47.05 2.9 2.9 0 0 0-.92.28c-.23.13-.4.3-.5.48a1.47 1.47 0 0 0-.03 1.29c.07.18.22.34.43.48.2.13.49.23.85.3.36.09.83.14 1.38.17a13 13 0 0 1 1.08.07c.28.04.48.08.63.14.14.06.24.12.3.2a.49.49 0 0 1 .07.25.44.44 0 0 1-.09.27.6.6 0 0 1-.28.19c-.14.05-.32.08-.55.11zm42.12-3.08h.21v.46a21.86 21.86 0 0 1-.01 1.23v.54a2.21 2.21 0 0 0 .12.74 1.7 1.7 0 0 0 .41.58c.2.16.44.29.75.38.3.09.67.13 1.1.13a6.7 6.7 0 0 0 1.96-.26l-.06-.36a34.69 34.69 0 0 1-.1-.8 3.68 3.68 0 0 1-1.54.24c-.29 0-.53-.03-.73-.09a.81.81 0 0 1-.43-.3 1 1 0 0 1-.14-.54V9.4l.01-.77a26.99 26.99 0 0 1 1.06.01 531 531 0 0 1 1.8.04V8.3a9.11 9.11 0 0 0 .02-.77l-.73.02h-2.13V7.4l.03-.92h-.06a2.48 2.48 0 0 1-.92.83 3.12 3.12 0 0 1-1.14.39v.92h.52zm-27.92 4h1.17a3.1 3.1 0 0 1-.1-.62l-.01-.43-.01-.44v-.59a85.47 85.47 0 0 1 .02-1.12c0-.3-.05-.58-.16-.82-.1-.25-.27-.46-.5-.64-.24-.17-.56-.3-.96-.4-.4-.09-.89-.14-1.48-.14a9.77 9.77 0 0 0-3.02.47l.05.25a8.12 8.12 0 0 1 .18.9 4.48 4.48 0 0 1 .83-.3 7.56 7.56 0 0 1 2.74-.16c.24.04.42.11.55.2.14.08.23.19.29.31.06.13.08.27.08.44v.37a10.18 10.18 0 0 0-1.97-.16c-.5 0-.93.02-1.3.09a2.9 2.9 0 0 0-.9.27c-.22.12-.4.28-.5.47a1.22 1.22 0 0 0-.18.67c0 .27.05.5.13.69.09.19.21.35.39.47s.4.21.68.27a5 5 0 0 0 .99.08 5 5 0 0 0 1.37-.16c.4-.11.7-.28.94-.5a1.58 1.58 0 0 0 .33-.48h.05a19.7 19.7 0 0 0 0 .86c0 .04.02.08.04.1l.1.05h.16zm-.34-2.14c-.32-.05-.63-.07-.95-.09l-1.11-.02a3.16 3.16 0 0 0-1.1.17.61.61 0 0 0-.25.22.64.64 0 0 0-.08.32c0 .12.03.23.07.32a.63.63 0 0 0 .21.22c.1.06.24.1.4.14a4.76 4.76 0 0 0 1.54-.04c.28-.07.5-.15.7-.26.18-.1.33-.23.42-.38a.8.8 0 0 0 .15-.48v-.12z"/><rect width="139" height="19" x=".5" y=".5" stroke="url(#A)" rx="3.5"/><defs><linearGradient id="A" x1="0" x2="92.43" y1="20" y2="-57.06" gradientUnits="userSpaceOnUse"><stop stop-color="#0d0099"/><stop offset="1" stop-color="#8f7de8"/></linearGradient><linearGradient id="B" x1="69.31" x2="78.43" y1="5.71" y2="14.96" gradientUnits="userSpaceOnUse"><stop stop-color="#fcecc5"/><stop offset="1" stop-color="#eebd52"/></linearGradient></defs></svg>